<svg width="41" height="40" viewBox="0 0 41 40" fill="none" xmlns="http://www.w3.org/2000/svg">
<path d="M5.5 6.25H35.5C35.9142 6.25 36.25 6.58579 36.25 7V13C36.25 13.4142 35.9142 13.75 35.5 13.75H5.5C5.08579 13.75 4.75 13.4142 4.75 13V7C4.75 6.58579 5.08579 6.25 5.5 6.25Z" stroke="#0944A1" stroke-width="0.5"/>
<path d="M35.5 15H5.5C4.94772 15 4.5 15.4477 4.5 16V20C4.5 20.5523 4.94772 21 5.5 21H35.5C36.0523 21 36.5 20.5523 36.5 20V16C36.5 15.4477 36.0523 15 35.5 15Z" fill="#0944A1" fill-opacity="0.2"/>
<path d="M5.5 15.25H35.5C35.9142 15.25 36.25 15.5858 36.25 16V20C36.25 20.4142 35.9142 20.75 35.5 20.75H5.5C5.08579 20.75 4.75 20.4142 4.75 20V16C4.75 15.6118 5.04488 15.2925 5.42285 15.2539L5.5 15.25Z" stroke="black" stroke-opacity="0.2" stroke-width="0.5"/>
<path d="M35.5 21.5H5.5C4.94772 21.5 4.5 21.9477 4.5 22.5V26.5C4.5 27.0523 4.94772 27.5 5.5 27.5H35.5C36.0523 27.5 36.5 27.0523 36.5 26.5V22.5C36.5 21.9477 36.0523 21.5 35.5 21.5Z" fill="#F8FAFC"/>
<path d="M5.5 21.75H35.5C35.9142 21.75 36.25 22.0858 36.25 22.5V26.5C36.25 26.9142 35.9142 27.25 35.5 27.25H5.5C5.08579 27.25 4.75 26.9142 4.75 26.5V22.5C4.75 22.1118 5.04488 21.7925 5.42285 21.7539L5.5 21.75Z" stroke="black" stroke-opacity="0.2" stroke-width="0.5"/>
<path d="M35.5 28H5.5C4.94772 28 4.5 28.4477 4.5 29V33C4.5 33.5523 4.94772 34 5.5 34H35.5C36.0523 34 36.5 33.5523 36.5 33V29C36.5 28.4477 36.0523 28 35.5 28Z" fill="#F8FAFC"/>
<path d="M5.5 28.25H35.5C35.9142 28.25 36.25 28.5858 36.25 29V33C36.25 33.4142 35.9142 33.75 35.5 33.75H5.5C5.08579 33.75 4.75 33.4142 4.75 33V29C4.75 28.6118 5.04488 28.2925 5.42285 28.2539L5.5 28.25Z" stroke="black" stroke-opacity="0.2" stroke-width="0.5"/>
<path d="M32.8965 10.25L32.5 10.6465L32.1035 10.25H32.8965Z" fill="#0944A1" stroke="#0944A1" stroke-width="0.5"/>
</svg>
