<svg width="17" height="17" viewBox="0 0 17 17" fill="none" xmlns="http://www.w3.org/2000/svg">
<path d="M10.1892 14.9577C10.2146 15.0208 10.2586 15.0747 10.3154 15.1121C10.3722 15.1494 10.4391 15.1685 10.5071 15.1668C10.5751 15.165 10.641 15.1426 10.6958 15.1023C10.7506 15.0621 10.7918 15.006 10.8139 14.9417L15.1472 2.27503C15.1686 2.21596 15.1726 2.15203 15.159 2.09073C15.1453 2.02943 15.1145 1.97329 15.07 1.92888C15.0256 1.88447 14.9695 1.85363 14.9082 1.83996C14.8469 1.82629 14.783 1.83036 14.7239 1.8517L2.05723 6.18503C1.9929 6.20709 1.93685 6.24831 1.89662 6.30314C1.85638 6.35798 1.83388 6.42381 1.83214 6.4918C1.8304 6.55979 1.8495 6.62669 1.88687 6.68351C1.92425 6.74034 1.97811 6.78437 2.04123 6.8097L7.3279 8.9297C7.49503 8.99661 7.64687 9.09667 7.77428 9.22385C7.90169 9.35103 8.00202 9.50269 8.06924 9.6697L10.1892 14.9577Z" stroke="#020202" stroke-linecap="round" stroke-linejoin="round"/>
<path d="M15.0707 1.92969L7.77734 9.22235" stroke="#020202" stroke-linecap="round" stroke-linejoin="round"/>
</svg>
