<svg width="25" height="24" viewBox="0 0 25 24" fill="none" xmlns="http://www.w3.org/2000/svg">
<path d="M21.5 12C21.5 13.78 20.9722 15.5201 19.9832 17.0001C18.9943 18.4802 17.5887 19.6337 15.9442 20.3149C14.2996 20.9961 12.49 21.1743 10.7442 20.8271C8.99836 20.4798 7.39472 19.6226 6.13604 18.364C4.87737 17.1053 4.0202 15.5016 3.67294 13.7558C3.32567 12.01 3.5039 10.2004 4.18509 8.55585C4.86628 6.91131 6.01983 5.50571 7.49987 4.51677C8.97991 3.52784 10.72 3 12.5 3C15.02 3 17.43 4 19.24 5.74L21.5 8" stroke="#0944A1" stroke-width="2" stroke-linecap="round" stroke-linejoin="round"/>
<path d="M21.5 3V8H16.5" stroke="#0944A1" stroke-width="2" stroke-linecap="round" stroke-linejoin="round"/>
</svg>
