<svg width="20" height="21" viewBox="0 0 20 21" fill="none" xmlns="http://www.w3.org/2000/svg">
<g clip-path="url(#clip0_601_10246)">
<path d="M16.7725 8.9082C16.9806 8.91417 17.1653 8.93036 17.2881 8.9502L17.3887 8.9707C17.651 9.0419 18.0534 9.2381 18.3262 9.4248L18.4346 9.50391C18.8211 9.8083 19.1762 10.3181 19.3574 10.8203L19.4238 11.0352C19.457 11.1632 19.4814 11.4178 19.4814 11.71C19.4814 11.929 19.4682 12.1272 19.4473 12.2666L19.4238 12.3857C19.3571 12.6427 19.2224 12.9411 19.0479 13.2188C18.9159 13.4286 18.7721 13.609 18.6367 13.7422L18.5039 13.8594C18.4387 13.9103 18.3773 13.9618 18.3291 14.0039C18.3059 14.0242 18.2796 14.0475 18.2568 14.0703C18.2466 14.0806 18.2278 14.0997 18.209 14.123C18.2 14.1341 18.1822 14.1568 18.1641 14.1875C18.1602 14.1941 18.1221 14.2534 18.1035 14.3438L18.0938 14.4443L18.1035 14.5449C18.1221 14.6355 18.1602 14.6946 18.1641 14.7012C18.1824 14.7324 18.2001 14.7556 18.209 14.7666C18.228 14.7902 18.2466 14.8091 18.2568 14.8193C18.2796 14.8421 18.306 14.8655 18.3291 14.8857L18.5039 15.0293C18.6744 15.1624 18.8718 15.3899 19.0479 15.6699C19.1788 15.8782 19.2871 16.0983 19.3613 16.3037L19.4238 16.5039C19.457 16.6319 19.4814 16.8866 19.4814 17.1787C19.4814 17.3978 19.4682 17.596 19.4473 17.7354L19.4238 17.8545C19.2281 18.6081 18.7106 19.2688 18.0332 19.6426L17.8955 19.7139C17.6487 19.8321 17.4865 19.8926 17.3262 19.9277C17.164 19.9632 16.979 19.9784 16.6797 19.9785L16.415 19.9697C15.9071 19.9365 15.5147 19.7981 15.0781 19.4932L14.8555 19.3262C14.6817 19.188 14.4832 18.9576 14.3076 18.6807C14.1763 18.4735 14.0695 18.2589 13.999 18.0645L13.9414 17.8779C13.8988 17.7103 13.873 17.5214 13.8672 17.3604C13.8643 17.2805 13.8661 17.2156 13.8711 17.1689C13.8726 17.1555 13.8738 17.1449 13.875 17.1377C13.8868 17.1198 13.9074 17.104 13.9424 17.1006C13.974 17.0975 13.9925 17.1068 14.0039 17.1172C14.005 17.1207 14.0065 17.1249 14.0078 17.1299L14.042 17.3438C14.1666 18.4913 14.863 19.3907 15.9189 19.7041L16.1348 19.7588C16.9707 19.9359 17.7817 19.7168 18.4141 19.1543L18.5381 19.0371C19.4707 18.1044 19.5761 16.6705 18.8154 15.6309L18.6514 15.4287C18.2427 14.9703 17.7295 14.6951 17.1143 14.5801L16.8438 14.541C16.7366 14.5294 16.6705 14.5172 16.6309 14.5068C16.6253 14.5054 16.6209 14.5031 16.6172 14.502C16.6117 14.4951 16.6051 14.4852 16.6016 14.4707C16.5987 14.4589 16.5984 14.4466 16.5996 14.4346L16.6084 14.4004C16.6099 14.3972 16.6111 14.394 16.6123 14.3916C16.6211 14.3883 16.6363 14.3826 16.6602 14.377L16.8438 14.3486C17.9916 14.2241 18.8917 13.5269 19.2051 12.4707L19.2598 12.2549C19.4369 11.4189 19.2168 10.6089 18.6543 9.97656L18.5381 9.85254C17.9301 9.24454 17.1337 8.97509 16.3018 9.09961L16.1348 9.12988C15.2079 9.32642 14.4646 10.0133 14.165 10.9121L14.1104 11.0947C14.0906 11.1709 14.0587 11.2123 14.0352 11.2334C14.0102 11.2557 13.9873 11.2625 13.9746 11.2637C13.9628 11.2647 13.9576 11.2615 13.9551 11.2598C13.9536 11.2587 13.9483 11.2548 13.9414 11.2451L13.915 11.1855C13.9197 11.2014 13.9049 11.1623 13.9375 11.0273C13.953 10.9633 13.9765 10.8876 14.0098 10.7998L14.1396 10.499C14.4998 9.74218 15.1449 9.20548 15.9883 8.97656L16.1602 8.93555C16.26 8.91403 16.4942 8.90025 16.7725 8.9082ZM8.5459 4.94727C9.20698 4.94136 9.79773 5.14259 10.3076 5.54883L10.5215 5.73535C11.1278 6.31459 11.4349 7.07893 11.3965 7.80859L11.3848 7.9541C11.3232 8.47907 11.0608 9.17225 10.6123 9.92383L10.4092 10.249C10.104 10.7151 9.25269 11.914 8.45508 13.0078L7.69727 14.0361C7.4891 14.3147 7.29926 14.5713 7.16113 14.7607C7.09226 14.8552 7.0356 14.9349 6.99512 14.9922C6.97529 15.0203 6.95715 15.0457 6.94336 15.0664C6.93698 15.076 6.92754 15.0893 6.91895 15.1035C6.9152 15.1097 6.9073 15.1241 6.89844 15.1416C6.89423 15.15 6.8857 15.1684 6.87695 15.1914C6.8747 15.1972 6.85719 15.2393 6.84863 15.3008L6.84375 15.3691L6.84961 15.4443C6.87403 15.6099 6.97443 15.7118 7.02051 15.751C7.07679 15.7987 7.13046 15.8223 7.15137 15.8311C7.19691 15.8501 7.23527 15.8581 7.24609 15.8604C7.2746 15.8662 7.29954 15.8693 7.30762 15.8701C7.32896 15.8722 7.35112 15.8733 7.36816 15.874C7.40549 15.8756 7.45609 15.876 7.51465 15.877C7.63322 15.8788 7.80215 15.8797 8.00781 15.8799L9.61133 15.8711L11.751 15.8486L11.8105 15.8789C11.8409 15.8943 11.8475 15.9069 11.8477 15.9072C11.8483 15.9083 11.8495 15.9102 11.8506 15.9141L11.8535 15.9434C11.8531 15.968 11.8472 15.9815 11.8428 15.9893C11.8383 15.9972 11.8287 16.0101 11.8057 16.0244L11.79 16.0342H6.32715L6.2627 15.9961L6.22656 15.9668C6.21357 15.9537 6.2001 15.9378 6.18848 15.9189C6.17627 15.899 6.17096 15.8827 6.16797 15.873C6.18099 15.8432 6.21739 15.77 6.30957 15.6279C6.39215 15.5006 6.50688 15.3375 6.66406 15.1211L7.27539 14.2959C8.07319 13.2331 9.06605 11.8662 9.71191 10.9473L10.2227 10.2051C10.5223 9.75082 10.7655 9.30171 10.9355 8.88867C11.1023 8.48364 11.2126 8.07941 11.2129 7.72461L11.208 7.55957C11.1034 5.92507 9.43669 4.76706 7.86426 5.22559L7.70703 5.27637C7.33537 5.41126 7.06288 5.57002 6.79395 5.81738L6.67871 5.92969C6.39469 6.21819 6.19913 6.54441 6.06055 6.94043L6.00391 7.11523C5.9629 7.25399 5.91754 7.30921 5.89941 7.32812L5.85254 7.31445C5.80988 7.29558 5.80468 7.28366 5.80957 7.29004C5.8158 7.29823 5.81069 7.29848 5.80762 7.27051C5.80105 7.2103 5.81205 7.0926 5.87988 6.89258L5.96875 6.66406C6.2995 5.88688 7.00701 5.27447 7.84961 5.03906L8.01953 4.99707C8.07277 4.98565 8.16133 4.97421 8.25781 4.96484L8.5459 4.94727ZM1.75879 1C2.50659 0.999486 2.82361 1.00286 2.9834 1.02832L2.99316 1.04492L3.01465 1.08203V6.5459L3.01367 9.75684C3.01246 10.5418 3.01076 11.0713 3.00586 11.4326C3.0009 11.7984 2.9931 11.974 2.98438 12.0645C2.98384 12.07 2.9829 12.0748 2.98242 12.0791C2.97914 12.0829 2.97759 12.0874 2.97363 12.0898C2.96492 12.0951 2.95011 12.1008 2.93164 12.1016C2.91267 12.1023 2.89584 12.0988 2.88184 12.0918L2.84863 12.0615L2.84375 12.0537V1.1709H1.40234C0.860021 1.1709 0.636223 1.16427 0.521484 1.14258L0.520508 1.1416C0.519476 1.12993 0.519531 1.1118 0.519531 1.08496C0.519542 1.05198 0.521967 1.0327 0.524414 1.02344C0.546179 1.0206 0.593392 1.01562 0.680664 1.01172C0.776389 1.00745 0.904571 1.00468 1.0791 1.00293L1.75879 1Z" fill="#404040" stroke="#404040"/>
</g>
<defs>
<clipPath id="clip0_601_10246">
<rect width="20" height="20" fill="white" transform="translate(0 0.5)"/>
</clipPath>
</defs>
</svg>
