<svg width="21" height="20" viewBox="0 0 21 20" fill="none" xmlns="http://www.w3.org/2000/svg">
<g clip-path="url(#clip0_239_17959)">
<path d="M10.4863 1.70703C11.1433 1.70675 11.7993 1.71201 12.3105 1.72266C12.5666 1.72799 12.7839 1.73436 12.9453 1.74219C13.0262 1.74611 13.09 1.74993 13.1357 1.75391C13.1936 1.75895 13.1926 1.76126 13.168 1.75488V1.75586C13.3181 1.79471 13.4831 1.87987 13.6191 1.9873L13.7441 2.10059C13.8883 2.25433 13.9685 2.38553 14.0186 2.52734C14.0706 2.67496 14.1006 2.86521 14.1006 3.15332V4.05469H16.7803C17.9788 4.05469 18.5647 4.05725 18.9014 4.08398C19.0631 4.09684 19.1385 4.11364 19.1826 4.12793C19.2031 4.13458 19.2222 4.14189 19.2471 4.1543L19.3477 4.20996C19.6071 4.36196 19.8214 4.62325 19.915 4.85938L19.9473 4.95898C19.965 5.02864 19.9884 5.10282 20.0166 5.16797C20.0182 5.25221 20.02 5.37503 20.0215 5.5332C20.0247 5.86592 20.0278 6.35 20.0303 6.94922C20.0352 8.14754 20.0381 9.80451 20.0381 11.6309V18.1494L20.0098 18.2031C20.0083 18.2059 20.0038 18.2133 19.9961 18.2246C19.9883 18.2359 19.9783 18.2482 19.9688 18.2598C19.9656 18.2636 19.9618 18.2664 19.959 18.2695L10.5439 18.2803C6.14937 18.2849 3.7529 18.2856 2.43945 18.2783C1.78126 18.2747 1.40105 18.2689 1.17969 18.2607C1.10521 18.258 1.05341 18.2536 1.01758 18.251L1.01465 15.9092C1.01628 15.9004 1.01785 15.8914 1.01855 15.8867C1.02055 15.8728 1.0221 15.8617 1.02246 15.8574C1.02418 15.8369 1.02437 15.8143 1.02441 15.8115L1.02832 15.0283C1.03395 13.1834 1.03395 10.1766 1.02832 8.3457L1.02441 7.57227C1.02432 7.56776 1.0246 7.56196 1.02441 7.55664C1.02432 7.55398 1.02368 7.54953 1.02344 7.54492C1.02331 7.54245 1.02298 7.5308 1.02148 7.5166C1.0211 7.51299 1.01823 7.48916 1.01172 7.45996C1.01052 7.45506 1.00666 7.44829 1.00391 7.43945C1.00532 6.53928 1.01064 5.9437 1.02246 5.54004C1.03524 5.10392 1.0557 4.93521 1.07422 4.85742C1.07915 4.83668 1.07871 4.83372 1.08691 4.81934L1.1543 4.70801C1.23365 4.57268 1.36242 4.4278 1.49316 4.32129L1.62305 4.22949C1.72457 4.16847 1.76332 4.14831 1.80762 4.13281C1.85128 4.11756 1.92402 4.09865 2.08301 4.08496C2.41765 4.05616 3.00138 4.05469 4.21875 4.05469H6.89746V3.15332C6.89746 3.04456 6.90353 2.93628 6.91211 2.8457L6.94238 2.64355C7.04703 2.23965 7.40787 1.87293 7.80566 1.76074C7.81278 1.75988 7.82535 1.75856 7.84473 1.75684C7.88975 1.75284 7.95274 1.74813 8.0332 1.74414C8.19351 1.73618 8.40972 1.73016 8.66504 1.72461C9.17472 1.71354 9.82955 1.70731 10.4863 1.70703ZM19.0479 10.7607L18.8682 10.8818L18.71 10.9727L18.5029 11.0703C18.2864 11.1613 18.1769 11.2024 17.834 11.2275C17.6424 11.2416 17.3898 11.2495 17.0303 11.2539L15.583 11.2598L13.3311 11.2617H13.0137L12.8789 11.5488L12.7871 11.7432C12.6738 11.9845 12.3983 12.2322 12.1172 12.3457L11.9971 12.3857C11.9974 12.3854 11.9589 12.3924 11.8584 12.4004C11.7648 12.4079 11.643 12.4146 11.5 12.4199C11.2144 12.4306 10.8578 12.4355 10.499 12.4355C10.1402 12.4355 9.78362 12.4306 9.49805 12.4199C9.35497 12.4145 9.23326 12.4079 9.13965 12.4004L9.00195 12.3857C8.72239 12.3134 8.42513 12.0871 8.26855 11.8467L8.21094 11.7432L8.12012 11.5488L7.98535 11.2617H7.66797L5.41504 11.2598C4.18831 11.2589 3.56383 11.2561 3.18164 11.2295C2.92273 11.2115 2.7963 11.1842 2.66211 11.1367L2.52051 11.082C2.41006 11.0372 2.2347 10.9452 2.15234 10.8906L1.94727 10.7549L1.1709 10.2402V18.1172H19.8271V10.2344L19.0479 10.7607ZM8.24121 10.9258C8.24122 11.165 8.26217 11.4076 8.35547 11.6221C8.43469 11.8041 8.55406 11.9392 8.69824 12.0391L8.85059 12.1279C8.90734 12.1554 8.97889 12.1872 9.07715 12.21C9.16589 12.2305 9.26076 12.2402 9.36621 12.2461C9.57235 12.2577 9.90868 12.2578 10.499 12.2578C11.0897 12.2578 11.4267 12.2577 11.6328 12.2461C11.738 12.2402 11.8323 12.2305 11.9209 12.21C11.9699 12.1986 12.0126 12.185 12.0498 12.1709L12.1475 12.1279C12.3603 12.0249 12.5369 11.8649 12.6426 11.6221C12.7359 11.4076 12.7568 11.165 12.7568 10.9258V10.0859H8.24121V10.9258ZM2.15918 4.22754H2.04199L1.9375 4.2793L1.77344 4.36035C1.61066 4.44093 1.48539 4.54611 1.38867 4.68555L1.30078 4.83691C1.27045 4.89959 1.23706 4.97694 1.21484 5.0918C1.1962 5.18825 1.188 5.30043 1.18262 5.43848C1.17178 5.71702 1.1709 6.20574 1.1709 7.11426C1.1709 8.12669 1.17172 8.68603 1.20215 9.04004C1.2181 9.22546 1.24351 9.37635 1.28809 9.51953C1.31006 9.59009 1.33578 9.65411 1.3623 9.71387L1.44336 9.88184C1.5403 10.0732 1.69247 10.2608 1.84473 10.4131C1.95888 10.5272 2.09285 10.6408 2.2334 10.7314L2.375 10.8135C2.48006 10.8667 2.59773 10.9261 2.74414 10.9707C2.89194 11.0157 3.04993 11.0412 3.24805 11.0566C3.62898 11.0863 4.25062 11.0859 5.40625 11.0859H8.0459L8.0625 10.6025L8.0752 10.2021C8.07794 10.1197 8.08055 10.0592 8.08398 10.0127C8.08601 9.98526 8.08905 9.96585 8.09082 9.95215C8.11178 9.9491 8.13972 9.9437 8.17676 9.94043C8.48988 9.91282 9.1165 9.91406 10.499 9.91406C11.8816 9.91406 12.5081 9.91282 12.8213 9.94043C12.8583 9.94369 12.8862 9.94911 12.9072 9.95215C12.909 9.96584 12.912 9.98524 12.9141 10.0127L12.9229 10.2021L12.9365 10.6025L12.9521 11.0859H15.5557C16.1966 11.0859 16.7514 11.0822 17.1621 11.0752C17.3669 11.0717 17.5383 11.0676 17.668 11.0625C17.7229 11.0604 17.7815 11.0575 17.8359 11.0537L17.9795 11.0381C18.5834 10.9236 19.1823 10.5157 19.4961 9.98926L19.5547 9.88184C19.6084 9.77585 19.666 9.66059 19.71 9.51953C19.7545 9.37636 19.7799 9.22544 19.7959 9.04004C19.8263 8.68603 19.8271 8.12669 19.8271 7.11426C19.8271 6.20442 19.8263 5.71582 19.8154 5.4375C19.81 5.29955 19.802 5.18744 19.7832 5.09082C19.772 5.03322 19.7582 4.98485 19.7432 4.94336L19.6973 4.83594C19.6506 4.7395 19.5885 4.64224 19.5 4.55371C19.4559 4.50965 19.4096 4.47252 19.3623 4.44043L19.2178 4.35742L19.0518 4.27734L18.9482 4.22656H10.4971L2.15918 4.22754ZM20.3271 4.56055C20.2605 4.59235 20.1886 4.63329 20.1572 4.66113C20.1984 4.62001 20.2538 4.57935 20.3223 4.55176C20.3238 4.55475 20.3257 4.55755 20.3271 4.56055ZM10.4971 1.88281C9.30747 1.88283 8.68563 1.88388 8.34375 1.89453C8.17602 1.89976 8.0488 1.90787 7.94629 1.92578C7.8823 1.93699 7.8295 1.95096 7.78516 1.9668L7.67188 2.0166C7.46068 2.12118 7.28677 2.28208 7.18262 2.52344C7.09057 2.73698 7.06934 2.97771 7.06934 3.21582V4.05469H13.9287V3.21582C13.9287 2.97658 13.9078 2.73404 13.8145 2.51953C13.7352 2.33742 13.6159 2.20239 13.4717 2.10254L13.3193 2.01367C13.2522 1.98118 13.1721 1.94642 13.0459 1.9248C12.9435 1.9073 12.8161 1.89974 12.6475 1.89453C12.4759 1.88923 12.2344 1.88618 11.8877 1.88477L10.4971 1.88281Z" fill="#404040" stroke="#404040"/>
</g>
<defs>
<clipPath id="clip0_239_17959">
<rect width="20" height="20" fill="white" transform="translate(0.5)"/>
</clipPath>
</defs>
</svg>
