<svg width="29" height="29" viewBox="0 0 29 29" fill="none" xmlns="http://www.w3.org/2000/svg">
<path d="M19.1663 15.6668L27.2911 20.4061L23.8229 21.3985L26.3017 25.6923L24.281 26.859L21.8021 22.5652L19.2082 25.0727L19.1663 15.6668ZM16.833 7.50016H19.1663V9.8335H24.9997C25.644 9.8335 26.1663 10.3558 26.1663 11.0002V15.6668H23.833V12.1668H12.1663V23.8335H16.833V26.1668H10.9997C10.3553 26.1668 9.83301 25.6445 9.83301 25.0002V19.1668H7.49967V16.8335H9.83301V11.0002C9.83301 10.3558 10.3553 9.8335 10.9997 9.8335H16.833V7.50016ZM5.16634 16.8335V19.1668H2.83301V16.8335H5.16634ZM5.16634 12.1668V14.5002H2.83301V12.1668H5.16634ZM5.16634 7.50016V9.8335H2.83301V7.50016H5.16634ZM5.16634 2.8335V5.16683H2.83301V2.8335H5.16634ZM9.83301 2.8335V5.16683H7.49967V2.8335H9.83301ZM14.4997 2.8335V5.16683H12.1663V2.8335H14.4997ZM19.1663 2.8335V5.16683H16.833V2.8335H19.1663Z" fill="#404040"/>
</svg>
