<svg width="20" height="20" viewBox="0 0 20 20" fill="none" xmlns="http://www.w3.org/2000/svg">
<g clip-path="url(#clip0_601_10254)">
<path d="M10.0967 2.89941L17.7832 2.90332L17.9561 2.96582C18.6735 3.22242 19.2274 3.83425 19.4111 4.54492L19.4434 4.68848C19.4586 4.77119 19.4783 4.85628 19.502 4.92676C19.5054 4.93712 19.5108 4.95153 19.5176 4.96875C19.5195 5.03677 19.5217 5.13371 19.5234 5.25684C19.5272 5.53195 19.5309 5.92884 19.5332 6.4082C19.5378 7.3668 19.5391 8.65048 19.5381 9.93848C19.5371 11.2265 19.5334 12.5182 19.5273 13.4922C19.5243 13.9793 19.5208 14.3861 19.5166 14.6729C19.5145 14.8165 19.512 14.9281 19.5098 15.0039C19.5093 15.018 19.5082 15.0303 19.5078 15.041C19.4952 15.0797 19.4861 15.1142 19.4805 15.1357L19.4326 15.3535C19.3095 16.0347 18.7853 16.6812 18.0957 16.9824L17.9561 17.0371L17.7803 17.0996L10.1162 17.1094C6.30586 17.1145 4.36941 17.1169 3.34766 17.1084C2.56737 17.1019 2.3464 17.0883 2.25098 17.0732L2.18066 17.0576C1.6147 16.9145 1.1616 16.5823 0.859375 16.085L0.739258 15.8613C0.644554 15.6619 0.628268 15.6472 0.604492 15.5654C0.583082 15.4918 0.55974 15.3601 0.543945 15.0244C0.52726 14.6698 0.519667 14.1352 0.515625 13.2812C0.517685 13.2693 0.520084 13.2603 0.520508 13.2568C0.52231 13.242 0.523233 13.2298 0.523438 13.2266C0.523742 13.2217 0.523316 13.2176 0.523438 13.2148C0.523686 13.2091 0.524303 13.2034 0.524414 13.1992L0.52832 12.5918C0.53399 11.1672 0.53399 8.83582 0.52832 7.41113L0.524414 6.80371C0.524303 6.79956 0.523685 6.79378 0.523438 6.78809C0.523315 6.78531 0.523742 6.78117 0.523438 6.77637C0.523232 6.77316 0.522316 6.76093 0.520508 6.74609C0.519814 6.74045 0.517371 6.72016 0.511719 6.69531C0.510525 6.69041 0.507497 6.68269 0.504883 6.67383C0.506723 6.0119 0.51166 5.55445 0.522461 5.22656C0.534454 4.86271 0.552804 4.6864 0.574219 4.57715C0.583661 4.52908 0.593832 4.49262 0.608398 4.45117L0.670898 4.29199C0.963782 3.56687 1.61262 3.03267 2.28418 2.90918C2.31184 2.90868 2.35362 2.90772 2.4082 2.90723C2.51727 2.90623 2.67602 2.90614 2.87891 2.90527C3.28464 2.90355 3.86594 2.90145 4.5791 2.90039L10.0967 2.89941ZM11.9463 10.5752C11.911 10.5819 11.8835 10.592 11.8701 10.5967C11.8418 10.6066 11.8178 10.6173 11.8057 10.623C11.7788 10.6358 11.7507 10.6506 11.7266 10.6641C11.6756 10.6924 11.609 10.7314 11.5352 10.7764L10.9766 11.1299C10.773 11.2624 10.5702 11.3892 10.4082 11.4854C10.327 11.5336 10.2584 11.5727 10.207 11.6006L10.1582 11.6279C10.1333 11.6364 10.0557 11.6498 9.94629 11.6416C9.89152 11.6375 9.8457 11.6287 9.81055 11.6201L9.73926 11.5967C9.73778 11.5959 9.73092 11.5922 9.7168 11.584C9.7014 11.575 9.68161 11.5626 9.65723 11.5479C9.60843 11.5183 9.54506 11.4802 9.47266 11.4346L8.96973 11.1104C8.7852 10.9893 8.61218 10.88 8.48145 10.8008C8.41703 10.7618 8.35837 10.7266 8.31152 10.7012C8.28963 10.6893 8.2605 10.674 8.23145 10.6611C8.2188 10.6555 8.1903 10.644 8.15527 10.6338C8.13874 10.629 8.10241 10.6184 8.05566 10.6143C8.03669 10.6126 7.95362 10.6051 7.85254 10.6387L7.74707 10.6875C7.71652 10.7064 7.68178 10.7332 7.67773 10.7363C7.66098 10.7492 7.63982 10.767 7.61426 10.7871C7.56266 10.8277 7.49076 10.8845 7.40234 10.9551C7.22512 11.0966 6.97761 11.2945 6.68457 11.5303C6.09829 12.0019 5.32643 12.6253 4.55762 13.2471C3.78868 13.8689 3.02194 14.4898 2.44727 14.957C2.16005 15.1905 1.92047 15.3863 1.75195 15.5244C1.66785 15.5934 1.60039 15.6486 1.55371 15.6875C1.53068 15.7067 1.51072 15.7228 1.49609 15.7354C1.48924 15.7412 1.48081 15.7494 1.47266 15.7568C1.46906 15.7601 1.46106 15.7675 1.45215 15.7764C1.44802 15.7805 1.43826 15.7905 1.42676 15.8037C1.42059 15.8109 1.405 15.8293 1.39648 15.8408L1.33105 15.9688C1.28464 16.1036 1.30593 16.2215 1.32715 16.2881C1.34824 16.3541 1.37871 16.4022 1.39648 16.4277C1.4318 16.4784 1.4698 16.5127 1.4873 16.5283C1.52703 16.5638 1.56966 16.5931 1.60059 16.6133C1.63395 16.635 1.67124 16.6575 1.71094 16.6797L1.83594 16.7451L2.10059 16.876L2.20508 16.9277H17.7871L17.8887 16.8789L18.1035 16.7773C18.1973 16.7329 18.3248 16.665 18.4248 16.5986L18.5137 16.5342V16.5332L18.6025 16.459L19.0703 16.0684L18.5957 15.6865L15.4932 13.1875C14.6396 12.5001 13.8591 11.8734 13.29 11.418C13.0059 11.1906 12.7737 11.0058 12.6113 10.877C12.5303 10.8126 12.4661 10.7609 12.4209 10.7256C12.3985 10.7081 12.3788 10.6937 12.3643 10.6826C12.3574 10.6774 12.349 10.6709 12.3408 10.665C12.3371 10.6624 12.3292 10.6573 12.3203 10.6514C12.316 10.6485 12.3071 10.6423 12.2959 10.6357L12.2002 10.5928L12.1074 10.5713C12.0213 10.56 11.957 10.5731 11.9463 10.5752ZM0.670898 10.8252C0.670898 12.5844 0.672943 13.6426 0.680664 14.2598C0.684501 14.5663 0.690497 14.7735 0.698242 14.9053C0.701882 14.9671 0.706875 15.0321 0.716797 15.0879C0.720579 15.1091 0.731582 15.1697 0.761719 15.2354C0.775662 15.2657 0.813827 15.3429 0.894531 15.4121C0.994614 15.4978 1.15629 15.5639 1.34082 15.5195L1.33984 15.5186C1.3897 15.5066 1.42665 15.4905 1.4375 15.4854C1.45321 15.4779 1.4656 15.4708 1.47266 15.4668C1.48654 15.4589 1.49809 15.4521 1.50391 15.4482C1.51623 15.4402 1.52827 15.4314 1.53613 15.4258C1.55292 15.4137 1.57305 15.3983 1.59473 15.3818C1.6392 15.3481 1.70134 15.3007 1.77734 15.2412C1.93027 15.1215 2.14718 14.9493 2.41113 14.7393L4.44629 13.1084L7.30176 10.8057L7.8291 10.3809L7.26758 10.002L7.07324 9.87109L1.82422 6.43164L1.44336 6.18457L0.670898 5.68359V10.8252ZM18.6152 6.14844C18.6077 6.15184 18.595 6.15756 18.5898 6.16016C18.5805 6.16494 18.5731 6.16933 18.5703 6.1709C18.5642 6.17438 18.5595 6.1776 18.5576 6.17871C18.5534 6.18129 18.5488 6.18334 18.5469 6.18457C18.5424 6.18737 18.5374 6.19101 18.5322 6.19434C18.5213 6.20137 18.5056 6.21116 18.4863 6.22363C18.4474 6.24882 18.3907 6.28596 18.3184 6.33301C18.1736 6.42721 17.9647 6.56294 17.708 6.73047L15.7109 8.03613C14.9342 8.54405 14.2233 9.00965 13.7041 9.35156C13.4447 9.52238 13.2328 9.66285 13.084 9.76172C13.0097 9.81106 12.95 9.8507 12.9082 9.87891C12.8877 9.89274 12.87 9.90465 12.8564 9.91406C12.8499 9.91859 12.8422 9.9244 12.835 9.92969L12.8037 9.95312L12.7695 9.98535C12.6156 10.1393 12.615 10.3253 12.627 10.4102C12.6385 10.492 12.6682 10.551 12.6797 10.5732C12.7054 10.6229 12.7341 10.6589 12.7432 10.6699C12.7673 10.6994 12.7935 10.7255 12.8105 10.7422C12.8488 10.7797 12.9007 10.827 12.9609 10.8799C13.0839 10.9878 13.2668 11.142 13.5039 11.3389C13.7416 11.5363 14.0376 11.7786 14.3887 12.0645L15.6045 13.0488C16.384 13.677 17.0972 14.2503 17.6182 14.667C17.8785 14.8752 18.0919 15.0449 18.2412 15.1631C18.3155 15.2219 18.375 15.2691 18.417 15.3018C18.4377 15.3179 18.4565 15.3311 18.4707 15.3418C18.4774 15.3468 18.4854 15.3542 18.4941 15.3604C18.4981 15.3632 18.506 15.3688 18.5156 15.375C18.5202 15.378 18.5295 15.3831 18.541 15.3896C18.5452 15.392 18.5794 15.4116 18.626 15.4277V15.4287C18.7865 15.4841 18.9443 15.4497 19.0566 15.3789C19.1484 15.321 19.197 15.2483 19.2158 15.2178C19.2548 15.1546 19.2701 15.0972 19.2734 15.085C19.2838 15.0472 19.2887 15.0146 19.29 15.0039C19.2937 14.9752 19.2954 14.9439 19.2969 14.9189C19.3001 14.865 19.3033 14.7898 19.3057 14.6982C19.3105 14.5128 19.3142 14.2387 19.3174 13.8838C19.3238 13.1731 19.3271 12.1269 19.3271 10.7861C19.3271 9.63557 19.326 8.58927 19.3242 7.83105C19.3233 7.45216 19.3225 7.14451 19.3213 6.93164C19.3207 6.82544 19.32 6.74184 19.3193 6.68457C19.319 6.65629 19.3188 6.63246 19.3184 6.61523C19.3182 6.60732 19.3178 6.59736 19.3174 6.58789C19.3172 6.58445 19.3166 6.57353 19.3154 6.56055C19.3151 6.55678 19.3133 6.53637 19.3086 6.51172C19.307 6.50342 19.3003 6.46522 19.2822 6.41992C19.2699 6.39161 19.2259 6.31696 19.1914 6.27344C19.1217 6.21022 18.9202 6.1304 18.7617 6.12012H18.6973C18.6694 6.12792 18.6288 6.14271 18.6152 6.14844ZM4.01172 3.07227C3.41926 3.07539 3.00461 3.07977 2.72852 3.08594C2.591 3.08901 2.4835 3.09338 2.4043 3.09766C2.37699 3.09913 2.33846 3.10117 2.29688 3.10547L2.16992 3.12695C1.70848 3.25211 1.29427 3.5711 1.0332 3.97852L0.930664 4.1582C0.86434 4.29108 0.80236 4.47092 0.758789 4.62305C0.719702 4.75958 0.670917 4.95579 0.670898 5.10352C0.670898 5.21361 0.706739 5.29639 0.726562 5.33594C0.748459 5.37954 0.772398 5.41274 0.788086 5.43262C0.819282 5.4721 0.852753 5.50319 0.875 5.52344C0.922008 5.5662 0.982182 5.61382 1.0498 5.66406C1.18849 5.7671 1.40599 5.91822 1.72852 6.13574C2.05268 6.35437 2.49001 6.64546 3.07227 7.0293L5.28711 8.48242C6.49447 9.27312 7.5964 9.9922 8.39941 10.5137C8.80071 10.7743 9.12801 10.9861 9.35645 11.1328C9.47034 11.2059 9.56087 11.264 9.62402 11.3037C9.65507 11.3232 9.68204 11.3394 9.70215 11.3516C9.71162 11.3573 9.7238 11.3646 9.73535 11.3711C9.74037 11.3739 9.75126 11.3801 9.76465 11.3867C9.7707 11.3897 9.78507 11.397 9.80371 11.4043C9.81287 11.4079 9.82989 11.4138 9.85156 11.4199C9.86594 11.424 9.91851 11.4394 9.9873 11.4395C10.056 11.4395 10.1086 11.424 10.123 11.4199C10.1447 11.4139 10.1617 11.4079 10.1709 11.4043C10.1894 11.397 10.2038 11.3897 10.21 11.3867C10.2233 11.3802 10.2342 11.3739 10.2393 11.3711C10.2507 11.3647 10.263 11.3582 10.2725 11.3525C10.2926 11.3404 10.3194 11.3233 10.3506 11.3037C10.4137 11.2641 10.5043 11.2067 10.6182 11.1338C10.8467 10.9874 11.1746 10.7757 11.5762 10.5156L14.6895 8.48926L19.0811 5.62109L19.3223 5.46387L19.3066 5.17578L19.2969 4.9873C19.259 4.28652 18.8398 3.6306 18.2285 3.28906L18.1035 3.22461L17.8877 3.12305L17.7861 3.07617H17.6758L10.0781 3.06836C7.10929 3.06549 5.19787 3.06601 4.01172 3.07227ZM19.0752 7.03418C19.0745 7.03458 19.0731 7.03508 19.0713 7.03613C19.0758 7.03323 19.0783 7.03174 19.0791 7.03125C19.0786 7.03158 19.0771 7.03301 19.0752 7.03418ZM19.875 4.35254C19.8188 4.37341 19.7605 4.4005 19.7158 4.42676L19.6562 4.46777C19.7055 4.41866 19.7784 4.36812 19.8721 4.3418C19.8731 4.34536 19.874 4.34897 19.875 4.35254Z" fill="#404040" stroke="#404040"/>
</g>
<defs>
<clipPath id="clip0_601_10254">
<rect width="20" height="20" fill="white"/>
</clipPath>
</defs>
</svg>
