<svg width="21" height="20" viewBox="0 0 21 20" fill="none" xmlns="http://www.w3.org/2000/svg">
<path d="M10.5003 18.3334C5.89795 18.3334 2.16699 14.6024 2.16699 10.0001C2.16699 5.39771 5.89795 1.66675 10.5003 1.66675C15.1027 1.66675 18.8337 5.39771 18.8337 10.0001C18.8337 14.6024 15.1027 18.3334 10.5003 18.3334ZM10.5003 16.6667C14.1822 16.6667 17.167 13.682 17.167 10.0001C17.167 6.31818 14.1822 3.33341 10.5003 3.33341C6.81843 3.33341 3.83366 6.31818 3.83366 10.0001C3.83366 13.682 6.81843 16.6667 10.5003 16.6667ZM9.66699 12.5001H11.3337V14.1667H9.66699V12.5001ZM9.66699 5.83341H11.3337V10.8334H9.66699V5.83341Z" fill="#97301B"/>
</svg>
