<svg width="20" height="21" viewBox="0 0 20 21" fill="none" xmlns="http://www.w3.org/2000/svg">
<path d="M8.33203 11.3347C8.68994 11.8132 9.14657 12.2091 9.67094 12.4956C10.1953 12.7821 10.7752 12.9525 11.3712 12.9952C11.9672 13.0378 12.5654 12.9518 13.1252 12.743C13.6851 12.5342 14.1935 12.2074 14.6159 11.7848L17.1161 9.28456C17.8752 8.49865 18.2952 7.44605 18.2857 6.35347C18.2762 5.26089 17.838 4.21575 17.0654 3.44315C16.2928 2.67055 15.2476 2.23231 14.155 2.22281C13.0625 2.21332 12.0099 2.63333 11.2239 3.39239L9.79049 4.81751" stroke="#3D3D3D" stroke-width="1.66678" stroke-linecap="round" stroke-linejoin="round"/>
<path d="M11.6687 9.66716C11.3108 9.18868 10.8541 8.79277 10.3298 8.50628C9.80538 8.21979 9.22553 8.04942 8.62953 8.00674C8.03352 7.96406 7.43531 8.05005 6.87546 8.25889C6.31562 8.46773 5.80723 8.79453 5.38479 9.21712L2.88458 11.7173C2.12552 12.5032 1.70551 13.5558 1.715 14.6484C1.7245 15.741 2.16274 16.7861 2.93534 17.5587C3.70794 18.3313 4.75308 18.7696 5.84566 18.7791C6.93824 18.7886 7.99084 18.3686 8.77675 17.6095L10.2019 16.1844" stroke="#3D3D3D" stroke-width="1.66678" stroke-linecap="round" stroke-linejoin="round"/>
</svg>
