<svg width="21" height="21" viewBox="0 0 21 21" fill="none" xmlns="http://www.w3.org/2000/svg">
<path d="M18.8364 14.6023V17.1025C18.8374 17.3346 18.7898 17.5644 18.6968 17.777C18.6038 17.9897 18.4675 18.1806 18.2964 18.3375C18.1254 18.4944 17.9235 18.6139 17.7036 18.6882C17.4837 18.7626 17.2508 18.7902 17.0196 18.7693C14.4551 18.4907 11.9917 17.6143 9.82739 16.2108C7.81376 14.9312 6.10656 13.224 4.82701 11.2104C3.41855 9.03624 2.54204 6.56088 2.26848 3.98485C2.24766 3.75439 2.27505 3.52212 2.34891 3.30282C2.42277 3.08353 2.54148 2.88201 2.69749 2.71111C2.8535 2.54021 3.04338 2.40366 3.25505 2.31016C3.46672 2.21667 3.69554 2.16827 3.92694 2.16805H6.42713C6.83159 2.16407 7.22369 2.30729 7.53035 2.57102C7.83702 2.83476 8.03732 3.201 8.09393 3.60149C8.19945 4.40161 8.39516 5.18722 8.6773 5.94334C8.78943 6.24163 8.8137 6.56581 8.74723 6.87748C8.68076 7.18914 8.52635 7.47521 8.30228 7.70181L7.24386 8.76022C8.43025 10.8467 10.1578 12.5742 12.2442 13.7606L13.3027 12.7022C13.5292 12.4781 13.8153 12.3237 14.127 12.2572C14.4386 12.1908 14.7628 12.215 15.0611 12.3272C15.8172 12.6093 16.6029 12.805 17.403 12.9105C17.8078 12.9676 18.1775 13.1716 18.4418 13.4835C18.7061 13.7954 18.8466 14.1936 18.8364 14.6023Z" stroke="#404040" stroke-width="1.66678" stroke-linecap="round" stroke-linejoin="round"/>
</svg>
