<svg width="21" height="20" viewBox="0 0 21 20" fill="none" xmlns="http://www.w3.org/2000/svg">
<path d="M6.08317 5.00008V2.50008C6.08317 2.03985 6.45627 1.66675 6.9165 1.66675H16.9165C17.3767 1.66675 17.7498 2.03985 17.7498 2.50008V14.1667C17.7498 14.627 17.3767 15.0001 16.9165 15.0001H14.4165V17.4993C14.4165 17.96 14.0416 18.3334 13.5775 18.3334H3.58888C3.12549 18.3334 2.75 17.9629 2.75 17.4993L2.75217 5.83414C2.75225 5.37351 3.1272 5.00008 3.59118 5.00008H6.08317ZM4.41868 6.66675L4.41682 16.6667H12.7498V6.66675H4.41868ZM7.74983 5.00008H14.4165V13.3334H16.0832V3.33341H7.74983V5.00008Z" fill="#97751B"/>
</svg>
