<svg width="21" height="21" viewBox="0 0 21 21" fill="none" xmlns="http://www.w3.org/2000/svg">
<path d="M2.9987 5.4987H17.9987V15.4987H2.9987V5.4987ZM2.16536 3.83203C1.70513 3.83203 1.33203 4.20513 1.33203 4.66536V16.332C1.33203 16.7923 1.70513 17.1654 2.16536 17.1654H18.832C19.2923 17.1654 19.6654 16.7923 19.6654 16.332V4.66536C19.6654 4.20513 19.2923 3.83203 18.832 3.83203H2.16536ZM11.332 7.16536H16.332V8.83203H11.332V7.16536ZM15.4987 10.4987H11.332V12.1654H15.4987V10.4987ZM9.2487 8.83203C9.2487 9.98261 8.31596 10.9154 7.16536 10.9154C6.01477 10.9154 5.08203 9.98261 5.08203 8.83203C5.08203 7.68144 6.01477 6.7487 7.16536 6.7487C8.31596 6.7487 9.2487 7.68144 9.2487 8.83203ZM7.16536 11.7487C5.55453 11.7487 4.2487 13.0545 4.2487 14.6654H10.082C10.082 13.0545 8.7762 11.7487 7.16536 11.7487Z" fill="#404040"/>
</svg>
