<svg width="25" height="24" viewBox="0 0 25 24" fill="none" xmlns="http://www.w3.org/2000/svg">
<g clip-path="url(#clip0_482_7224)">
<path fill-rule="evenodd" clip-rule="evenodd" d="M11.3857 0.107719C11.0669 0.322266 11.0495 0.754875 11.3495 1.00734L11.4906 1.12608H17.299H23.1074L23.1196 9.5753C23.1329 18.7738 23.1129 18.1348 23.3931 18.3003C23.4636 18.342 23.6099 18.3761 23.718 18.3761C23.9855 18.3761 24.2119 18.1574 24.2548 17.8576C24.2712 17.7432 24.2783 13.8843 24.2707 9.28233L24.2569 0.915141L24.1587 0.704203C24.044 0.457969 23.821 0.227625 23.5822 0.108703C23.4226 0.02925 23.0808 0.0238125 17.4795 0.0122813L11.5457 0L11.3857 0.107719ZM9.44634 2.14462C9.06262 2.24213 8.88998 2.65748 9.09403 2.99217C9.28092 3.29873 8.93207 3.28233 15.2554 3.28233H20.9991L20.9992 11.6847C20.9994 20.0295 21 20.0881 21.094 20.2422C21.2085 20.43 21.4618 20.5466 21.6695 20.5072C21.8437 20.4742 21.9333 20.4133 22.0442 20.2523C22.1187 20.1442 22.1241 19.5643 22.1241 11.5741V3.01177L21.9939 2.76262C21.8307 2.4502 21.5257 2.22164 21.1862 2.15723C20.9362 2.10984 9.63112 2.0977 9.44634 2.14462ZM8.92875 4.35591C8.69493 4.50366 4.83525 8.40516 4.78247 8.54709C4.71872 8.71866 4.71825 10.7024 4.78195 10.9317C4.93448 11.481 5.70426 11.481 5.85679 10.9317C5.88318 10.8367 5.90489 10.4372 5.90503 10.044L5.90531 9.3292H7.28582C8.10679 9.3292 8.76304 9.30844 8.90503 9.27802C9.20329 9.21403 9.50179 8.99109 9.65531 8.71762C9.77217 8.50945 9.77254 8.50481 9.79593 6.96202L9.81937 5.41514H14.3428H18.8662V14.1339V22.8526L15.5616 22.8761C11.9209 22.9019 12.1195 22.8841 11.9705 23.1982C11.8672 23.4158 11.9131 23.6555 12.0923 23.8347L12.2352 23.9776L15.6445 23.9907C19.483 24.0055 19.2937 24.0215 19.6641 23.651C20.0448 23.2703 20.0147 24.0882 20.0147 14.1339C20.0147 4.35933 20.0358 5.0468 19.7237 4.66819C19.6425 4.56961 19.4691 4.43916 19.3383 4.37831L19.1006 4.26764L14.085 4.26736C9.24197 4.26708 9.06454 4.27012 8.92875 4.35591ZM7.68656 7.19639L6.72647 8.15733H7.6987H8.67093V7.19639C8.67093 6.66787 8.66545 6.23545 8.65879 6.23545C8.65209 6.23545 8.21461 6.66787 7.68656 7.19639ZM6.83006 10.8445C6.59287 10.9183 6.34664 11.1229 6.23747 11.337C6.1882 11.4335 6.11456 11.7523 6.07382 12.0455C6.03304 12.3387 5.99428 12.5814 5.98767 12.585C5.72981 12.7233 5.72451 12.7218 5.27826 12.3808C5.04304 12.2011 4.79123 12.0316 4.71867 12.0041C4.5262 11.9313 4.13822 11.9431 3.96108 12.0271C3.87656 12.0673 3.5137 12.3995 3.15473 12.7654C2.64562 13.2845 2.48972 13.4732 2.44589 13.6237C2.32711 14.0315 2.38734 14.2221 2.81789 14.8007C2.99489 15.0385 3.13968 15.2537 3.13968 15.279C3.13968 15.3042 3.11643 15.3758 3.08803 15.4382C3.04214 15.5389 2.98842 15.558 2.60756 15.6085C1.98347 15.6913 1.81223 15.7424 1.61587 15.9043C1.29989 16.1647 1.26689 16.3032 1.26572 17.3726C1.26473 18.2692 1.26993 18.3244 1.37376 18.5211C1.5577 18.8694 1.77309 18.9825 2.44317 19.0823C2.76178 19.1298 3.02522 19.1696 3.02854 19.1708C3.03183 19.172 3.06047 19.2355 3.09211 19.3119C3.14718 19.4449 3.13593 19.4695 2.83064 19.8855C2.16947 20.7863 2.21554 21.0559 3.19551 22.0193C3.87281 22.6852 4.089 22.8115 4.4662 22.7615C4.76058 22.7224 4.85554 22.6727 5.31384 22.3182C5.51704 22.161 5.70065 22.0323 5.72179 22.0323C5.74298 22.0323 5.81367 22.0567 5.87887 22.0864C6.00539 22.144 6.00928 22.1571 6.09323 22.8048C6.17165 23.4096 6.37448 23.7144 6.7912 23.854C7.02764 23.9332 8.67787 23.9253 8.87165 23.8441C9.08948 23.7528 9.30436 23.5579 9.3929 23.3713C9.43523 23.2821 9.50301 22.9708 9.54351 22.6794C9.58401 22.3881 9.64157 22.1336 9.67139 22.114C9.84909 21.9972 9.93361 22.0249 10.3208 22.3269C10.6881 22.6134 11.0354 22.7823 11.257 22.7823C11.5709 22.7823 11.7408 22.6702 12.3902 22.0346C12.7472 21.6853 13.0794 21.3212 13.1285 21.2256C13.2408 21.0069 13.2471 20.5849 13.1411 20.3776C13.0989 20.2951 12.93 20.0549 12.7658 19.8438C12.4834 19.4807 12.4702 19.4528 12.5239 19.3282C12.555 19.2557 12.5845 19.1899 12.5893 19.182C12.5942 19.1741 12.8167 19.137 13.0837 19.0996C13.6697 19.0176 13.8328 18.9672 14.0179 18.8115C14.313 18.5632 14.3612 18.3904 14.3814 17.5094C14.404 16.5189 14.3604 16.2877 14.0972 16.0021C13.8828 15.7695 13.6895 15.6991 13.0172 15.6088C12.6321 15.5571 12.601 15.5445 12.5337 15.4144C12.462 15.2757 12.4629 15.2736 12.7943 14.8327C12.9773 14.5893 13.1474 14.3364 13.1724 14.2707C13.2437 14.0832 13.2257 13.6959 13.1369 13.5082C13.0216 13.264 11.9382 12.166 11.6979 12.0496C11.4254 11.9177 11.0477 11.9219 10.8005 12.0597C10.6964 12.1177 10.4528 12.2861 10.2591 12.4339C9.92339 12.69 9.90014 12.7 9.76125 12.6476C9.62067 12.5945 9.61373 12.5785 9.56273 12.1914C9.46631 11.4593 9.42768 11.3471 9.19012 11.1096C9.03586 10.9553 8.90972 10.8765 8.75432 10.8374C8.47059 10.7659 7.06598 10.7711 6.83006 10.8445ZM7.10301 11.7629C7.08839 11.7865 7.03579 12.1062 6.9862 12.4733C6.9149 13.0008 6.87618 13.1604 6.80156 13.235C6.72154 13.315 6.33478 13.4929 5.799 13.696C5.60076 13.7712 5.49736 13.7232 4.96645 13.3097C4.6965 13.0995 4.44736 12.9164 4.41276 12.9029C4.35065 12.8787 3.37406 13.8089 3.37406 13.8923C3.37406 13.9151 3.55509 14.178 3.77639 14.4767C4.16592 15.0024 4.17806 15.0264 4.15753 15.233C4.13207 15.4898 3.84211 16.1945 3.70589 16.3307C3.62742 16.4092 3.47362 16.4468 2.91703 16.5238L2.22562 16.6194L2.21259 17.3183C2.20547 17.7027 2.21714 18.0348 2.23856 18.0562C2.25998 18.0776 2.56842 18.1361 2.92392 18.1862C3.27947 18.2363 3.61734 18.3081 3.67481 18.3458C3.80395 18.4304 4.17093 19.3182 4.17093 19.546C4.17093 19.6748 4.09251 19.8097 3.7725 20.2316C3.55336 20.5205 3.37406 20.7752 3.37406 20.7977C3.37406 20.8203 3.59362 21.0575 3.86198 21.325C4.18073 21.6426 4.374 21.802 4.41933 21.7846C4.45748 21.77 4.71281 21.5877 4.9867 21.3795C5.36142 21.0948 5.52065 21.0011 5.62992 21.0011C5.85257 21.0011 6.74475 21.3728 6.82837 21.5004C6.89306 21.5992 6.9675 21.9991 7.05159 22.7003L7.08393 22.9698H7.80436C8.20059 22.9698 8.53551 22.9524 8.54868 22.9312C8.56181 22.9099 8.60723 22.6199 8.64956 22.2866C8.69193 21.9534 8.75123 21.628 8.78132 21.5636C8.83921 21.4396 8.95678 21.3707 9.49912 21.1425C10.0213 20.9228 10.0802 20.9354 10.692 21.3995C10.9809 21.6187 11.2406 21.798 11.2692 21.798C11.3641 21.798 12.2951 20.826 12.2679 20.7553C12.2539 20.7185 12.0748 20.4687 11.8701 20.2002C11.6654 19.9317 11.4851 19.6593 11.4695 19.5948C11.4514 19.5206 11.484 19.3745 11.5583 19.1964C11.6228 19.0417 11.7188 18.8028 11.7717 18.6655C11.8876 18.3645 12.037 18.2599 12.4114 18.2177C12.5585 18.2012 12.8422 18.1643 13.042 18.1358L13.4053 18.084V17.348V16.612L12.7215 16.5162C11.9097 16.4025 11.9069 16.4006 11.645 15.7745C11.3875 15.1591 11.3951 15.1046 11.8136 14.5622C12.3825 13.8249 12.3827 13.957 11.8123 13.3846C11.5421 13.1135 11.2996 12.892 11.2733 12.8925C11.2471 12.8928 11.0358 13.0431 10.8037 13.2263C10.2914 13.6309 10.1287 13.735 10.0088 13.7353C9.92179 13.7355 9.28875 13.4888 8.96728 13.3294C8.77303 13.2331 8.73473 13.1247 8.64736 12.423C8.60723 12.1007 8.56514 11.8107 8.55384 11.7784C8.52909 11.708 7.14609 11.6932 7.10301 11.7629ZM7.23154 14.6499C6.31064 14.85 5.47317 15.615 5.19234 16.5128C5.03958 17.001 5.04178 17.7051 5.1975 18.1805C5.48348 19.0534 6.18895 19.7272 7.10062 19.9981C7.50975 20.1197 8.17903 20.1121 8.60062 19.9811C9.53428 19.6909 10.2845 18.8911 10.5017 17.9542C10.5917 17.566 10.5708 16.9098 10.4569 16.548C10.0295 15.1908 8.60362 14.3517 7.23154 14.6499ZM7.56267 15.5684C6.60843 15.6894 5.89139 16.653 6.0465 17.606C6.19486 18.5175 6.91054 19.1307 7.82868 19.1327C8.43276 19.134 8.97304 18.8478 9.30206 18.3521C9.51759 18.0274 9.60726 17.731 9.60792 17.3415C9.60909 16.6306 9.16073 15.951 8.51184 15.6798C8.27789 15.5821 7.85053 15.5319 7.56267 15.5684Z" fill="#404040"/>
</g>
<defs>
<clipPath id="clip0_482_7224">
<rect width="24" height="24" fill="white" transform="translate(0.75)"/>
</clipPath>
</defs>
</svg>
