<svg width="21" height="20" viewBox="0 0 21 20" fill="none" xmlns="http://www.w3.org/2000/svg">
<path d="M8.81057 15.0001H9.66634V10.8334H11.333V15.0001H12.1888C12.2988 13.9987 12.8098 13.1722 13.6393 12.2689C13.7328 12.1672 14.332 11.5471 14.4031 11.4585C15.1095 10.5777 15.4997 9.48758 15.4997 8.33341C15.4997 5.57199 13.2611 3.33341 10.4997 3.33341C7.73825 3.33341 5.49967 5.57199 5.49967 8.33341C5.49967 9.487 5.88946 10.5765 6.59519 11.4571C6.66637 11.5459 7.26702 12.1677 7.35929 12.2682C8.18939 13.1721 8.70053 13.9987 8.81057 15.0001ZM8.83301 16.6667V17.5001H12.1663V16.6667H8.83301ZM5.29463 12.4994C4.38005 11.3582 3.83301 9.90966 3.83301 8.33341C3.83301 4.65151 6.81777 1.66675 10.4997 1.66675C14.1816 1.66675 17.1663 4.65151 17.1663 8.33341C17.1663 9.9105 16.6187 11.3597 15.7033 12.5012C15.1863 13.1457 13.833 14.1667 13.833 15.4167V17.5001C13.833 18.4206 13.0868 19.1667 12.1663 19.1667H8.83301C7.91253 19.1667 7.16634 18.4206 7.16634 17.5001V15.4167C7.16634 14.1667 5.81182 13.1447 5.29463 12.4994Z" fill="#97751B"/>
</svg>
