<svg width="21" height="21" viewBox="0 0 21 21" fill="none" xmlns="http://www.w3.org/2000/svg">
<path d="M5.05247 4.19393C6.51329 2.93081 8.41758 2.16675 10.5003 2.16675C15.1027 2.16675 18.8337 5.89771 18.8337 10.5001C18.8337 12.2802 18.2755 13.9299 17.3247 15.2839L14.667 10.5001H17.167C17.167 6.81818 14.1822 3.83341 10.5003 3.83341C8.70851 3.83341 7.0818 4.54031 5.88385 5.69043L5.05247 4.19393ZM15.9482 16.8062C14.4873 18.0693 12.5831 18.8334 10.5003 18.8334C5.89795 18.8334 2.16699 15.1024 2.16699 10.5001C2.16699 8.71996 2.72515 7.07021 3.67599 5.71628L6.33366 10.5001H3.83366C3.83366 14.182 6.81843 17.1667 10.5003 17.1667C12.2922 17.1667 13.9188 16.4598 15.1168 15.3097L15.9482 16.8062Z" fill="#404040"/>
</svg>
