<svg width="24" height="24" viewBox="0 0 24 24" fill="none" xmlns="http://www.w3.org/2000/svg">
<path d="M9.5 3.0127C11.3134 3.0127 12.8476 3.64055 14.1035 4.89648C15.3595 6.15242 15.9873 7.68657 15.9873 9.5C15.9873 10.2318 15.8714 10.9219 15.6387 11.5703C15.4058 12.219 15.0894 12.7932 14.6904 13.292L14.6836 13.3008L20.9824 19.5996L19.5996 20.9824L13.3008 14.6836L13.292 14.6904C12.7932 15.0894 12.219 15.4058 11.5703 15.6387C10.9219 15.8714 10.2318 15.9873 9.5 15.9873C7.68657 15.9873 6.15242 15.3595 4.89648 14.1035C3.64055 12.8476 3.0127 11.3134 3.0127 9.5C3.0127 7.68657 3.64055 6.15242 4.89648 4.89648C6.15242 3.64055 7.68657 3.0127 9.5 3.0127ZM9.5 4.9873C8.24672 4.9873 7.18108 5.42634 6.30371 6.30371C5.42634 7.18108 4.9873 8.24672 4.9873 9.5C4.9873 10.7533 5.42634 11.8189 6.30371 12.6963C7.18108 13.5737 8.24672 14.0127 9.5 14.0127C10.7533 14.0127 11.8189 13.5737 12.6963 12.6963C13.5737 11.8189 14.0127 10.7533 14.0127 9.5C14.0127 8.24672 13.5737 7.18108 12.6963 6.30371C11.8189 5.42634 10.7533 4.9873 9.5 4.9873Z" fill="#45494F" stroke="#45494F" stroke-width="0.025"/>
</svg>
