<svg width="121" height="109" viewBox="0 0 121 109" fill="none" xmlns="http://www.w3.org/2000/svg">
<g clip-path="url(#clip0_239_17739)">
<path d="M59.6813 99.8135C26.6724 99.8135 -0.0866394 98.2664 -0.0866394 96.3579C-0.0866394 94.4495 26.6724 92.9023 59.6813 92.9023C92.6902 92.9023 119.449 94.4495 119.449 96.3579C119.449 98.2664 92.6902 99.8135 59.6813 99.8135Z" fill="#A6A6A6"/>
<path d="M36.8443 28.8822C36.8173 28.9089 36.7959 28.9405 36.7814 28.9754C36.7668 29.0102 36.7593 29.0475 36.7593 29.0852C36.7593 29.1229 36.7668 29.1603 36.7814 29.1951C36.7959 29.2299 36.8173 29.2616 36.8443 29.2882C36.8807 29.3238 36.9267 29.3482 36.9768 29.3584L36.9059 31.77H37.0816L37.1494 29.3432C37.1881 29.3273 37.2228 29.3034 37.2512 29.273C37.2777 29.2454 37.2982 29.2128 37.3115 29.1771C37.3247 29.1414 37.3304 29.1034 37.3282 29.0654L38.5273 28.5312V28.3633L37.2542 28.8731C37.2267 28.847 37.1943 28.8265 37.1588 28.8129C37.1233 28.7992 37.0854 28.7926 37.0473 28.7935C37.0093 28.7943 36.9717 28.8026 36.9369 28.8178C36.902 28.8331 36.8706 28.8549 36.8443 28.8822Z" fill="#263238"/>
<path d="M37.0661 25.6289C37.7684 25.6289 38.455 25.8352 39.039 26.2216C39.6229 26.608 40.0781 27.1572 40.3469 27.7998C40.6157 28.4424 40.686 29.1494 40.549 29.8316C40.4119 30.5138 40.0737 31.1404 39.5771 31.6322C39.0805 32.124 38.4477 32.4589 37.7589 32.5946C37.07 32.7303 36.356 32.6607 35.7071 32.3945C35.0582 32.1283 34.5036 31.6776 34.1134 31.0993C33.7232 30.521 33.5149 29.8411 33.5149 29.1455C33.5145 28.6836 33.6061 28.2261 33.7844 27.7993C33.9627 27.3725 34.2243 26.9846 34.5541 26.658C34.884 26.3314 35.2756 26.0724 35.7066 25.8958C36.1377 25.7192 36.5996 25.6285 37.0661 25.6289ZM37.0661 31.9265C37.6294 31.9265 38.1801 31.7611 38.6485 31.4511C39.1169 31.1412 39.482 30.7007 39.6975 30.1853C39.9131 29.6699 39.9695 29.1027 39.8596 28.5556C39.7497 28.0084 39.4785 27.5058 39.0801 27.1114C38.6818 26.7169 38.1743 26.4483 37.6217 26.3394C37.0692 26.2306 36.4965 26.2864 35.9761 26.4999C35.4556 26.7134 35.0108 27.0749 34.6978 27.5388C34.3848 28.0026 34.2178 28.548 34.2178 29.1059C34.2174 29.4765 34.2907 29.8436 34.4337 30.1862C34.5767 30.5288 34.7864 30.8401 35.0509 31.1023C35.3155 31.3646 35.6296 31.5726 35.9754 31.7145C36.3211 31.8565 36.6918 31.9295 37.0661 31.9295V31.9265Z" fill="#263238"/>
<path opacity="0.8" d="M36.8716 29.2921C36.908 29.3277 36.9541 29.3521 37.0041 29.3623L36.9333 31.7739H37.109L37.1768 29.3471C37.2154 29.3312 37.2501 29.3073 37.2785 29.2769C37.305 29.2493 37.3255 29.2167 37.3388 29.181C37.3521 29.1453 37.3578 29.1073 37.3556 29.0693L38.5547 28.5351V28.3672L37.2816 28.877C37.2541 28.8503 37.2215 28.8293 37.1858 28.8151C37.15 28.8009 37.1118 28.7938 37.0733 28.7942C37.0348 28.7947 36.9968 28.8026 36.9614 28.8176C36.926 28.8326 36.8939 28.8543 36.867 28.8816C36.8401 28.9088 36.8188 28.9411 36.8045 28.9764C36.7902 29.0118 36.783 29.0497 36.7834 29.0878C36.7838 29.1259 36.7919 29.1636 36.807 29.1986C36.8221 29.2337 36.8441 29.2655 36.8716 29.2921Z" fill="#263238"/>
<path d="M36.8704 29.2914C36.9068 29.3269 36.9529 29.3513 37.0031 29.3616C37.0597 29.3766 37.1193 29.3766 37.176 29.3616C37.2146 29.3457 37.2494 29.3218 37.2778 29.2914C37.3044 29.2638 37.3249 29.2312 37.3382 29.1955C37.3515 29.1598 37.3572 29.1218 37.355 29.0838C37.3543 29.0477 37.3462 29.012 37.3314 28.979C37.3165 28.946 37.2952 28.9162 37.2686 28.8915C37.2438 28.8587 37.2122 28.8316 37.1759 28.812C37.1396 28.7924 37.0994 28.7808 37.0581 28.778C37.0168 28.7752 36.9754 28.7813 36.9367 28.7958C36.898 28.8103 36.863 28.8329 36.8339 28.862C36.8049 28.8912 36.7826 28.9262 36.7685 28.9647C36.7544 29.0032 36.7489 29.0442 36.7524 29.085C36.7559 29.1258 36.7682 29.1653 36.7886 29.2009C36.8089 29.2366 36.8368 29.2674 36.8704 29.2914Z" fill="#263238"/>
<path d="M36.9215 31.7709L37.0972 31.7739L37.162 29.3471L37.1681 29.1456L37.3438 29.0693L38.543 28.5381L38.5306 28.3672L37.2575 28.877L37.0017 28.9838L36.9924 29.3593L36.9215 31.7709Z" fill="#263238"/>
<path d="M67.7159 76.6129L73.656 78.7925C73.804 78.6429 74.4883 76.5916 74.4883 76.5916L69.288 74.3906L67.7159 76.6129Z" fill="#F7978D"/>
<path d="M73.6636 79.3591C73.6651 79.3457 73.6631 79.3322 73.6577 79.3198C73.6523 79.3075 73.6437 79.2968 73.6327 79.2888C73.6219 79.2814 73.609 79.2773 73.5957 79.2773C73.5825 79.2773 73.5696 79.2814 73.5587 79.2888C73.5248 79.3194 72.6679 79.991 72.6031 80.4702C72.5868 80.5596 72.6068 80.6517 72.6586 80.7266C72.6813 80.7709 72.718 80.8065 72.7631 80.828C72.8083 80.8495 72.8593 80.8557 72.9083 80.8457C73.0902 80.8121 73.2628 80.516 73.3984 80.1833C73.5102 79.9164 73.5989 79.6407 73.6636 79.3591ZM72.7573 80.3756C72.9418 80.0477 73.1889 79.7585 73.4848 79.5239C73.3522 80.0276 73.0809 80.6778 72.8682 80.7266C72.8374 80.7266 72.7973 80.7266 72.7449 80.6503C72.7137 80.6059 72.7015 80.551 72.711 80.4977C72.7201 80.4551 72.7325 80.4132 72.748 80.3725L72.7573 80.3756Z" fill="#0944A1"/>
<path d="M73.6501 79.3134C73.6464 79.3026 73.64 79.293 73.6313 79.2854C73.6226 79.2779 73.6121 79.2728 73.6008 79.2707C73.5699 79.2707 72.8887 79.0326 72.4941 79.2432C72.4381 79.2765 72.3896 79.3208 72.3514 79.3732C72.3133 79.4257 72.2863 79.4854 72.2722 79.5485C72.2477 79.5999 72.2414 79.6579 72.2543 79.7133C72.2671 79.7686 72.2984 79.8181 72.3431 79.8538C72.5958 80.0278 73.3788 79.6553 73.6378 79.405L73.6562 79.3806L73.6501 79.3134ZM72.5619 79.3653C72.8507 79.2677 73.164 79.2677 73.4528 79.3653C73.1445 79.6004 72.528 79.8416 72.3986 79.7256C72.3986 79.7256 72.3492 79.6889 72.3801 79.579L72.4047 79.5455C72.432 79.467 72.4881 79.4016 72.5619 79.3623V79.3653Z" fill="#0944A1"/>
<path d="M73.3743 78.7496L74.2744 76.2098C74.2918 76.1591 74.3267 76.116 74.3729 76.0882C74.4191 76.0603 74.4737 76.0493 74.5272 76.0572L76.7035 76.3472C76.9192 76.3899 77.0117 76.8875 77.0117 76.9119C76.6017 78.5206 75.4704 81.8846 75.0728 82.9775C74.6751 84.0703 73.5777 83.7864 73.6517 83.298C73.9908 81.1184 73.698 80.1202 73.3928 79.2533C73.325 79.0932 73.3184 78.9141 73.3743 78.7496Z" fill="#263238"/>
<g opacity="0.2">
<path d="M71.3672 75.262L69.2895 74.3828L67.7174 76.6082L70.6859 77.6949L71.3672 75.262Z" fill="black"/>
</g>
<path d="M58.0994 50.1049C58.3358 50.61 58.5156 51.1392 58.6358 51.6831C59.3139 54.5526 60.5069 69.3303 61.1696 69.6173C63.1548 70.4751 65.8212 70.7468 70.3711 74.2878C69.9025 75.4936 69.4463 76.3483 69.0271 77.7556C69.0271 77.7556 59.7239 75.6585 57.0452 73.1767C54.2708 70.6247 51.4102 58.1974 50.245 54.9189C49.5823 53.0568 48.8178 50.8314 49.7888 49.1463C50.3344 48.2245 55.957 45.1199 58.0994 50.1049Z" fill="#263238"/>
<path d="M49.44 45.6825L48.4967 46.0061C49.0917 51.1162 49.5356 53.0271 49.5356 53.0271L50.5374 55.8997C50.5374 55.8997 57.4023 58.6776 59.8005 55.4265C63.028 51.0582 58.8049 42.6055 58.8049 42.6055C58.8049 42.6055 52.8678 44.3882 49.44 45.6825Z" fill="#263238"/>
<path opacity="0.4" d="M58.9451 53C58.2331 53.2686 51.8367 60.0516 51.8367 60.0516L53.5013 65.7539L59.5 58.0368L58.9451 53Z" fill="black"/>
<path d="M40.3858 83.7344L40.1947 91.3141C40.4197 91.4453 42.5713 92.0772 42.5713 92.0772L43.4961 84.9005L40.3858 83.7344Z" fill="#F7978D"/>
<path d="M39.43 91.0033C39.4448 91.0066 39.4602 91.0051 39.4741 90.9991C39.488 90.993 39.4995 90.9827 39.5071 90.9697C39.5152 90.9564 39.5195 90.9411 39.5195 90.9255C39.5195 90.9098 39.5152 90.8945 39.5071 90.8812C39.4762 90.8384 38.7611 89.8036 38.2432 89.7181C38.1952 89.7082 38.1457 89.7086 38.0978 89.7191C38.05 89.7296 38.005 89.7501 37.9658 89.7792C37.9163 89.812 37.8774 89.8582 37.8539 89.9124C37.8304 89.9666 37.8232 90.0263 37.8332 90.0845C37.8671 90.3012 38.1877 90.5149 38.5453 90.6797C38.8282 90.8173 39.1247 90.9257 39.43 91.0033ZM38.3449 89.9043C38.7095 90.1357 39.0239 90.4366 39.2697 90.7896C38.7302 90.6217 38.0367 90.2859 37.9812 90.0387C37.9812 90.0051 37.9812 89.9562 38.0613 89.8921C38.0848 89.8746 38.1119 89.8623 38.1406 89.856C38.1693 89.8497 38.199 89.8495 38.2278 89.8555C38.2748 89.8648 38.3205 89.8802 38.3634 89.9013L38.3449 89.9043Z" fill="#0944A1"/>
<path d="M39.4773 90.9878C39.4899 90.9828 39.5009 90.9744 39.5091 90.9637C39.5172 90.9529 39.5222 90.9401 39.5235 90.9267C39.5235 90.8931 39.7948 90.0781 39.5729 89.6049C39.5398 89.5406 39.4942 89.4835 39.4386 89.4368C39.383 89.3902 39.3186 89.355 39.2492 89.3332C39.1938 89.3049 39.1299 89.2974 39.0693 89.3119C39.0087 89.3265 38.9555 89.3623 38.9194 89.4126C38.7282 89.7179 39.1197 90.655 39.3848 90.9725L39.4126 90.9908L39.4773 90.9878ZM39.4372 89.6812C39.5394 90.031 39.5341 90.403 39.4218 90.7497C39.1721 90.3711 38.9193 89.6538 39.0488 89.4828C39.0488 89.4676 39.0858 89.4248 39.2091 89.4645L39.243 89.495C39.3297 89.5298 39.3993 89.5966 39.4372 89.6812Z" fill="#0944A1"/>
<path d="M40.0869 90.6549L42.8211 91.7721C42.8787 91.7974 42.9258 91.8415 42.9544 91.8971C42.9831 91.9527 42.9915 92.0164 42.9783 92.0774L42.6361 94.6782C42.5837 94.9347 42.0443 95.0323 42.0196 95.0232C40.2872 94.5103 36.6652 93.1183 35.4877 92.6086C34.3101 92.0988 34.6369 90.8075 35.164 90.9052C37.516 91.3448 38.598 91.012 39.5412 90.6579C39.6273 90.6213 39.72 90.6021 39.8137 90.6016C39.9075 90.601 40.0003 90.6192 40.0869 90.6549Z" fill="#263238"/>
<g opacity="0.2">
<path d="M43.1901 87.251L43.4922 84.9005L40.388 83.7344L40.2894 87.0221L43.1901 87.251Z" fill="black"/>
</g>
<path d="M60.4431 54.424C58.1836 60.0012 49.913 66.024 46.6887 70.6579C46.6887 70.6579 45.169 81.391 43.7633 85.6983C42.185 85.451 40.7948 85.5823 39.8639 85.2862C39.8639 85.2862 39.6666 73.271 39.8639 69.9406C40.3232 62.5471 46.1616 56.3624 52.9155 49.1552C54.0468 47.9494 57.6472 46.9329 59.4813 47.9555C59.8266 48.1387 61.6237 51.5088 60.4431 54.424Z" fill="#263238"/>
<path d="M39.1878 83.7344C39.16 83.7344 39.2618 85.8712 39.2618 85.8712L44.5453 86.3169L44.7148 84.3663L39.1878 83.7344Z" fill="#263238"/>
<path opacity="0.6" d="M39.1878 83.7344C39.16 83.7344 39.2618 85.8712 39.2618 85.8712L44.5453 86.3169L44.7148 84.3663L39.1878 83.7344Z" fill="white"/>
<path d="M67.4058 77.9836C67.4058 78.008 69.2553 78.6307 69.2553 78.6307L71.1758 73.4413L69.5451 72.6445L67.4058 77.9836Z" fill="#263238"/>
<path opacity="0.6" d="M67.4058 77.9836C67.4058 78.008 69.2553 78.6307 69.2553 78.6307L71.1758 73.4413L69.5451 72.6445L67.4058 77.9836Z" fill="white"/>
<path d="M48.5846 46.4612L59.5 43.1583C59.2626 42.0899 58.8681 40.591 57.709 36.2227C56.9611 33.2085 56.4112 30.1495 56.0629 27.0649C56.0629 27.0649 56.0629 27.0465 56.0629 27.0374C56.0036 26.6567 55.7947 26.3146 55.4817 26.0859C55.1687 25.8571 54.777 25.7603 54.3922 25.8163H54.3675C53.6246 25.9293 52.6999 26.0941 51.8121 26.3139C50.1158 26.7294 48.4445 27.239 46.806 27.8402C46.2685 28.0659 45.7465 28.3259 45.2431 28.6186C44.8881 28.8081 44.5915 29.0892 44.3848 29.4321C44.178 29.775 44.0688 30.1669 44.0687 30.5662C44.0748 33.1548 44.5773 36.1464 48.5846 46.4612Z" fill="#0944A1"/>
<path opacity="0.6" d="M48.5841 46.4617L59.1172 43.2717C58.8767 42.2063 58.6733 42.1636 56.0624 27.0531C56.0639 27.044 56.0639 27.0347 56.0624 27.0256C56.0109 26.6478 55.8112 26.3053 55.5066 26.0722C55.202 25.8391 54.8169 25.7342 54.4348 25.7801H54.4101C53.6919 25.8839 52.801 26.0365 51.9441 26.2502C50.3066 26.6444 48.6938 27.1326 47.1137 27.7124C46.5969 27.9327 46.0954 28.1866 45.6125 28.4725C45.2672 28.6643 44.981 28.9454 44.7844 29.2857C44.5879 29.6261 44.4884 30.0129 44.4966 30.4049C44.5305 33.0179 44.6168 36.1377 48.5841 46.4617Z" fill="white"/>
<path d="M48.4277 29.3952L48.8315 30.0455C48.8562 30.0976 48.8961 30.1413 48.9461 30.1707C48.9962 30.2001 49.054 30.2139 49.112 30.2103L49.7039 30.1096C49.7498 30.0976 49.7908 30.0718 49.8212 30.0357C49.8516 29.9996 49.8698 29.955 49.8734 29.9081L50.043 29.0717L49.1028 28.6016L48.4277 29.3952Z" fill="#263238"/>
<path d="M51.9096 26.076C52.8343 25.841 53.8177 25.667 54.6037 25.551H54.6284H54.6746C54.8766 25.5258 55.0815 25.5405 55.2777 25.5943C55.4739 25.648 55.6573 25.7396 55.8175 25.8639C55.9777 25.9883 56.1115 26.1427 56.2111 26.3185C56.3107 26.4943 56.3741 26.6879 56.3978 26.888C56.7684 30.1394 57.3512 33.3637 58.1425 36.5405C60.0999 41.1805 65.9414 41.8734 65.9414 41.8734C65.3866 43.7488 64.2392 45.3986 62.6677 46.5806L61.7429 47.2766C51.1851 44.0103 51.6383 30.1818 51.4163 26.189L51.9096 26.076Z" fill="#0944A1"/>
<path opacity="0.2" d="M57.832 35.404C57.2155 32.7665 56.7901 30.0222 56.5281 28.0166C56.4996 27.9925 56.4698 27.9701 56.4387 27.9494C55.7143 27.4427 54.1638 28.9476 54.845 31.4447C55.5047 33.8319 56.8179 35.1811 57.832 35.404Z" fill="black"/>
<path d="M49.0245 28.6239C51.546 28.0134 51.9961 26.2643 51.9961 26.2643C50.575 25.5164 50.0941 22.479 49.9739 20.7695L48.9721 22.2745L47.6127 24.3258C47.7393 24.5511 47.8525 24.7835 47.9518 25.0218C48.3525 25.9712 48.3741 26.9419 47.027 27.7234C47.0239 27.7234 46.8729 29.1429 49.0245 28.6239Z" fill="#F7978D"/>
<path d="M52.4436 25.9395L51.5928 25.8906C51.0135 26.9625 50.1903 27.8864 49.1884 28.5892C49.7671 28.7633 50.2801 29.1045 50.6619 29.569C53.0293 27.8657 52.4436 25.9395 52.4436 25.9395Z" fill="#0944A1"/>
<path opacity="0.7" d="M52.4436 25.9395L51.5928 25.8906C51.0135 26.9625 50.1903 27.8864 49.1884 28.5892C49.7671 28.7633 50.2801 29.1045 50.6619 29.569C53.0293 27.8657 52.4436 25.9395 52.4436 25.9395Z" fill="white"/>
<path d="M46.989 27.582L47.6579 27.2188C47.6579 27.2188 48.4008 28.5985 49.1992 28.5833C48.071 29.4624 48.0525 30.1523 48.0525 30.1523C46.0242 30.1218 46.989 27.582 46.989 27.582Z" fill="#0944A1"/>
<path d="M39.7913 40.0048C39.369 39.4248 40.8517 37.7245 42.4392 36.1218C43.4164 35.1328 44.4337 34.1773 45.0625 33.5423L44.7203 31.6955L44.2086 28.9023C43.9589 29.2748 36.6995 37.236 36.5608 38.8661L39.7913 40.0048Z" fill="#0944A1"/>
<path opacity="0.2" d="M42.4392 36.1216C43.4164 35.1326 44.4337 34.1771 45.0625 33.5421L44.7203 31.6953C44.1665 32.0707 43.7153 32.5763 43.4072 33.1667C42.9284 34.0946 42.6017 35.0921 42.4392 36.1216Z" fill="black"/>
<path d="M47.8586 50.3406L49.5078 49.8614C47.35 37.4433 46.9215 31.5883 47.0263 27.6016C46.2445 27.8811 45.4779 28.2011 44.7298 28.5601C44.3433 28.7899 44.0233 29.1147 43.8008 29.5029C43.5783 29.8912 43.4608 30.3299 43.4598 30.7763C43.3858 33.0078 45.5775 38.5025 47.8586 50.3406Z" fill="#0944A1"/>
<path opacity="0.7" d="M46.989 27.582L47.6579 27.2188C47.6579 27.2188 48.4008 28.5985 49.1992 28.5833C48.071 29.4624 48.0525 30.1523 48.0525 30.1523C46.0242 30.1218 46.989 27.582 46.989 27.582Z" fill="white"/>
<path opacity="0.2" d="M47.8515 24.8005L49.1585 22.8438C49.2446 23.0687 49.3065 23.302 49.3435 23.5397C49.4544 24.2571 48.7763 25.2401 48.1413 25.5881L47.8515 24.8005Z" fill="black"/>
<path d="M45.9431 21.6053C45.9431 21.6053 45.9678 22.747 44.7347 22.4173C44.5745 21.2146 44.183 21.3428 43.7082 20.6712C43.4048 20.3035 43.2075 19.8613 43.1375 19.3915C43.0675 18.9218 43.1273 18.442 43.3106 18.0032L44.035 17.5575C46.9172 16.3883 45.9431 21.6053 45.9431 21.6053Z" fill="#263238"/>
<path d="M48.633 16.7521C48.3445 16.4833 48.0053 16.2736 47.6348 16.1347C47.2644 15.9959 46.8699 15.9307 46.474 15.9428C46.0781 15.955 45.6885 16.0444 45.3274 16.2058C44.9664 16.3671 44.641 16.5974 44.3699 16.8833C42.659 18.5959 43.6023 21.8469 44.8014 23.5442C45.1045 23.99 45.5248 24.3454 46.0169 24.5718C46.5091 24.7983 47.0543 24.8872 47.5938 24.8291C48.1333 24.771 48.6465 24.5679 49.078 24.2419C49.5094 23.9159 49.8427 23.4794 50.0418 22.9795C50.6768 21.4531 50.1558 20.2321 49.4499 18.0617C49.297 17.5623 49.0155 17.111 48.633 16.7521Z" fill="#F7978D"/>
<path d="M50.198 22.5211C50.198 22.5211 50.2751 20.6529 49.1469 20.2225C49.2424 19.1479 48.3423 19.6119 48.0156 18.9526C47.5655 18.2199 47.171 17.5056 47.7073 16.7577L48.9558 16.2418C52.8182 15.5336 50.198 22.5211 50.198 22.5211Z" fill="#263238"/>
<path d="M43.544 16.4767C43.8693 15.9856 44.2971 15.5692 44.7986 15.2557C45.5723 14.7154 46.4509 14.2391 47.3972 14.2422C48.5254 14.2422 49.5242 14.9107 50.5075 15.4633C51.4909 16.0158 52.69 16.4523 53.7227 16.0005C53.5813 16.2082 53.3994 16.3856 53.1876 16.5225C52.9758 16.6593 52.7385 16.7528 52.4896 16.7973C52.8259 16.8249 53.1644 16.7971 53.4915 16.7148C53.1749 17.2751 52.6674 17.7056 52.0597 17.9293C51.4521 18.153 50.7839 18.1553 50.1746 17.9359L50.8559 18.3083C49.0711 18.6136 47.2893 17.887 45.6155 17.1819C45.9398 17.7184 46.4216 18.1443 46.9965 18.4029C46.6489 18.5129 46.2822 18.5513 45.919 18.5156C45.5559 18.4799 45.2039 18.3709 44.8849 18.1954C44.6612 18.0361 44.4107 17.9172 44.1451 17.8443C44.0209 17.8304 43.8953 17.8517 43.7829 17.9058C43.6705 17.9598 43.5759 18.0444 43.5101 18.1496C43.0354 17.829 43.3128 16.8644 43.544 16.4767Z" fill="#263238"/>
<path d="M45.3867 22.4698C45.2523 22.5425 45.1034 22.585 44.9505 22.5945C44.7977 22.604 44.6446 22.5802 44.502 22.5248C44.7549 21.9657 44.9302 21.3752 45.023 20.7695L45.3867 22.4698Z" fill="#FF5652"/>
<path d="M49.7302 18.5223C49.0397 18.6169 48.8055 19.2427 48.8918 19.8044C48.8918 20.6438 49.8813 21.2055 50.1248 20.7629C50.4559 20.3961 50.6477 19.9266 50.6673 19.435C50.6858 18.8184 50.2974 18.4429 49.7302 18.5223Z" fill="#F7978D"/>
<path d="M46.0577 20.0217C45.9463 20.0705 45.9154 20.2659 45.9804 20.4216C46.0454 20.5773 46.1877 20.675 46.2898 20.6292C46.3919 20.5834 46.4228 20.4094 46.3671 20.2323C46.3114 20.0553 46.1691 19.9728 46.0577 20.0217Z" fill="#263238"/>
<path d="M44.267 20.4868C44.1556 20.5356 44.1216 20.7127 44.1897 20.8836C44.2578 21.0546 44.4032 21.1584 44.4991 21.1095C44.595 21.0607 44.6476 20.8806 44.5764 20.7096C44.5053 20.5387 44.3722 20.444 44.267 20.4868Z" fill="#263238"/>
<path d="M45.6536 22.9133C45.5639 22.953 45.5329 23.0965 45.5886 23.2186C45.6443 23.3407 45.765 23.4414 45.8547 23.4018C45.9445 23.3621 45.9723 23.2186 45.9166 23.0782C45.8609 22.9378 45.7433 22.8859 45.6536 22.9133Z" fill="#263238"/>
<path d="M44.1435 19.6175C44.126 19.6215 44.1098 19.6297 44.0963 19.6414C44.0829 19.6532 44.0726 19.668 44.0664 19.6847C44.0263 19.8173 43.9564 19.9393 43.8619 20.0413C43.7674 20.1434 43.6508 20.2229 43.5208 20.2738C43.5074 20.2774 43.4948 20.2835 43.4838 20.2919C43.4728 20.3003 43.4636 20.3107 43.4567 20.3226C43.4499 20.3346 43.4454 20.3477 43.4437 20.3614C43.442 20.375 43.4431 20.3888 43.4468 20.4021C43.456 20.4289 43.475 20.4513 43.5002 20.4649C43.5253 20.4785 43.5547 20.4822 43.5824 20.4753C43.7465 20.4155 43.8943 20.3187 44.0141 20.1926C44.1339 20.0665 44.2225 19.9146 44.2729 19.7488C44.2809 19.7213 44.278 19.6918 44.2648 19.6663C44.2517 19.6407 44.2292 19.6212 44.202 19.6114C44.1823 19.6073 44.1618 19.6094 44.1435 19.6175Z" fill="#263238"/>
<path d="M46.4631 19.3777C46.4495 19.3657 46.4331 19.3572 46.4153 19.3529C46.3976 19.3486 46.3791 19.3488 46.3614 19.3533C46.2281 19.395 46.087 19.4062 45.9487 19.3861C45.8105 19.366 45.6786 19.3151 45.563 19.2373C45.5434 19.2179 45.5167 19.207 45.489 19.207C45.4613 19.207 45.4347 19.2179 45.415 19.2373C45.397 19.2597 45.3885 19.2882 45.3914 19.3167C45.3943 19.3452 45.4083 19.3715 45.4304 19.3899C45.5728 19.4894 45.7363 19.5552 45.9084 19.5822C46.0805 19.6092 46.2566 19.5967 46.423 19.5456C46.4511 19.5378 46.475 19.5193 46.4894 19.4941C46.5038 19.469 46.5077 19.4392 46.5001 19.4113C46.4888 19.399 46.4764 19.3878 46.4631 19.3777Z" fill="#263238"/>
<path d="M46.4665 37.8061L47.903 37.7817C48.3474 37.7717 48.7781 37.9351 49.1021 38.2365L50.3536 39.3843C50.4257 39.452 50.4712 39.5429 50.4819 39.6408C50.4927 39.7386 50.4679 39.8371 50.4122 39.9185L49.7648 40.8526C49.7072 40.9349 49.6213 40.9937 49.5232 41.0178C49.425 41.042 49.3214 41.0299 49.2315 40.9839L47.6564 40.1688L45.9763 39.1645C45.9763 39.1645 45.9147 37.8183 46.4665 37.8061Z" fill="#F7978D"/>
<path d="M37.0507 37.7812L46.4648 37.8087L46.283 39.3534C46.283 39.3534 38.6906 41.7955 37.1986 41.0415C36.8472 40.7144 36.6113 40.2841 36.5258 39.8141C36.4403 39.3441 36.5098 38.8594 36.7239 38.4315L37.0507 37.7812Z" fill="#0944A1"/>
<path d="M45.8309 39.8842L46.543 39.6858L46.4567 37.5703L45.7384 37.6008L45.8309 39.8842Z" fill="#263238"/>
<path d="M46.6145 37.3439L45.6104 37.3842C45.5287 37.3875 45.4517 37.4227 45.3962 37.4823C45.3408 37.5418 45.3115 37.6207 45.3149 37.7015L45.3215 37.8632L46.9292 37.7987L46.9226 37.637C46.9195 37.5582 46.8856 37.4837 46.8282 37.429C46.7707 37.3744 46.6941 37.3439 46.6145 37.3439Z" fill="#263238"/>
<path d="M74.3444 42.4206C73.7093 42.0054 73.5182 41.4499 73.0682 40.9126C72.7599 40.5432 73.3086 40.6073 72.8062 40.76C72.6233 40.84 72.4514 40.9426 72.2945 41.0652C71.8845 41.3216 71.4991 41.6208 71.083 41.8681C70.7223 42.0818 70.0195 42.1733 69.7298 42.4114C69.2612 42.8266 70.038 44.0904 70.2538 44.5086C70.4942 45.0153 69.7298 45.458 69.4862 44.9451C69.1379 44.2155 68.3611 42.9457 68.8111 42.1031C69.0917 41.5811 69.6835 41.5567 70.1767 41.3552C71.1015 40.9706 71.9245 39.893 72.9664 39.7953C73.1194 39.7706 73.2763 39.7913 73.4173 39.8548C73.5583 39.9184 73.6771 40.022 73.7587 40.1525C73.9929 40.4578 73.9775 40.8851 74.2673 41.2148C74.4174 41.3881 74.5918 41.5392 74.7852 41.6635C75.2568 41.9688 74.8222 42.7381 74.3444 42.4267V42.4206Z" fill="#0944A1"/>
<g opacity="0.3">
<path d="M74.3444 42.4206C73.7093 42.0054 73.5182 41.4499 73.0682 40.9126C72.7599 40.5432 73.3086 40.6073 72.8062 40.76C72.6233 40.84 72.4514 40.9426 72.2945 41.0652C71.8845 41.3216 71.4991 41.6208 71.083 41.8681C70.7223 42.0818 70.0195 42.1733 69.7298 42.4114C69.2612 42.8266 70.038 44.0904 70.2538 44.5086C70.4942 45.0153 69.7298 45.458 69.4862 44.9451C69.1379 44.2155 68.3611 42.9457 68.8111 42.1031C69.0917 41.5811 69.6835 41.5567 70.1767 41.3552C71.1015 40.9706 71.9245 39.893 72.9664 39.7953C73.1194 39.7706 73.2763 39.7913 73.4173 39.8548C73.5583 39.9184 73.6771 40.022 73.7587 40.1525C73.9929 40.4578 73.9775 40.8851 74.2673 41.2148C74.4174 41.3881 74.5918 41.5392 74.7852 41.6635C75.2568 41.9688 74.8222 42.7381 74.3444 42.4267V42.4206Z" fill="black"/>
</g>
<path d="M79.8353 39.027L65.2004 47.3877C64.971 47.5188 64.8035 47.7347 64.7348 47.9881C64.6662 48.2414 64.702 48.5114 64.8344 48.7386L69.383 56.5469C69.6114 56.9389 69.9877 57.2251 70.429 57.3423C70.8704 57.4596 71.3408 57.3985 71.7367 57.1723L85.1193 49.5271C85.5152 49.3009 85.8041 48.9283 85.9225 48.4912C86.041 48.0541 85.9792 47.5883 85.7509 47.1963L81.2007 39.3853C81.1348 39.273 81.0472 39.1747 80.9429 39.0959C80.8386 39.0171 80.7197 38.9594 80.5929 38.9261C80.4662 38.8929 80.334 38.8847 80.204 38.902C80.074 38.9193 79.9487 38.9618 79.8353 39.027Z" fill="#0944A1"/>
<path opacity="0.3" d="M79.8353 39.027L65.2004 47.3877C64.971 47.5188 64.8035 47.7347 64.7348 47.9881C64.6662 48.2414 64.702 48.5114 64.8344 48.7386L69.383 56.5469C69.6114 56.9389 69.9877 57.2251 70.429 57.3423C70.8704 57.4596 71.3408 57.3985 71.7367 57.1723L85.1193 49.5271C85.5152 49.3009 85.8041 48.9283 85.9225 48.4912C86.041 48.0541 85.9792 47.5883 85.7509 47.1963L81.2007 39.3853C81.1348 39.273 81.0472 39.1747 80.9429 39.0959C80.8386 39.0171 80.7197 38.9594 80.5929 38.9261C80.4662 38.8929 80.334 38.8847 80.204 38.902C80.074 38.9193 79.9487 38.9618 79.8353 39.027Z" fill="white"/>
<path d="M74.1848 46.8268L78.0703 53.2969L77.7974 53.4576L73.9119 46.9875L74.1848 46.8268Z" fill="#0944A1"/>
<g opacity="0.3">
<path d="M74.1848 46.8268L78.0703 53.2969L77.7974 53.4576L73.9119 46.9875L74.1848 46.8268Z" fill="black"/>
</g>
<path opacity="0.2" d="M65.7101 48.3187L80.4202 39.9148C80.6397 39.7899 80.9003 39.7564 81.1448 39.8217C81.3893 39.8869 81.5976 40.0456 81.7241 40.2628L81.8998 40.5681C82.0771 40.8712 82.1922 41.206 82.2385 41.5533C82.2849 41.9005 82.2616 42.2534 82.1699 42.5918C82.0783 42.9301 81.9201 43.2472 81.7045 43.5248C81.4889 43.8025 81.22 44.0353 80.9134 44.2099L69.1996 50.8952C68.582 51.2418 67.8511 51.3329 67.166 51.1489C66.4808 50.9648 65.8967 50.5204 65.5406 49.9122L65.3649 49.6069C65.2384 49.3907 65.2037 49.1336 65.2684 48.8921C65.3332 48.6506 65.492 48.4444 65.7101 48.3187Z" fill="black"/>
<path d="M65.1574 47.4049L79.8674 39.001C80.0874 38.8759 80.3486 38.8423 80.5935 38.9076C80.8385 38.9728 81.0474 39.1315 81.1744 39.349L81.3501 39.6542C81.527 39.9574 81.6418 40.2922 81.6879 40.6394C81.7341 40.9866 81.7107 41.3393 81.6191 41.6776C81.5275 42.0158 81.3694 42.3328 81.154 42.6105C80.9386 42.8882 80.6701 43.1211 80.3637 43.296L68.65 49.9813C68.3436 50.1563 68.0054 50.2698 67.6547 50.3152C67.304 50.3607 66.9476 50.3373 66.6061 50.2463C66.2645 50.1553 65.9444 49.9985 65.6641 49.7849C65.3838 49.5712 65.1488 49.305 64.9725 49.0014L64.7967 48.6961C64.7347 48.5879 64.6948 48.4686 64.6793 48.3451C64.6638 48.2216 64.6731 48.0963 64.7066 47.9764C64.7401 47.8565 64.7972 47.7442 64.8745 47.6462C64.9519 47.5481 65.048 47.4661 65.1574 47.4049Z" fill="#0944A1"/>
<path d="M65.1574 47.4049L79.8674 39.001C80.0874 38.8759 80.3486 38.8423 80.5935 38.9076C80.8385 38.9728 81.0474 39.1315 81.1744 39.349L81.3501 39.6542C81.527 39.9574 81.6418 40.2922 81.6879 40.6394C81.7341 40.9866 81.7107 41.3393 81.6191 41.6776C81.5275 42.0158 81.3694 42.3328 81.154 42.6105C80.9386 42.8882 80.6701 43.1211 80.3637 43.296L68.65 49.9813C68.3436 50.1563 68.0054 50.2698 67.6547 50.3152C67.304 50.3607 66.9476 50.3373 66.6061 50.2463C66.2645 50.1553 65.9444 49.9985 65.6641 49.7849C65.3838 49.5712 65.1488 49.305 64.9725 49.0014L64.7967 48.6961C64.7347 48.5879 64.6948 48.4686 64.6793 48.3451C64.6638 48.2216 64.6731 48.0963 64.7066 47.9764C64.7401 47.8565 64.7972 47.7442 64.8745 47.6462C64.9519 47.5481 65.048 47.4661 65.1574 47.4049Z" fill="#0944A1"/>
<path opacity="0.5" d="M65.1574 47.4049L79.8674 39.001C80.0874 38.8759 80.3486 38.8423 80.5935 38.9076C80.8385 38.9728 81.0474 39.1315 81.1744 39.349L81.3501 39.6542C81.527 39.9574 81.6418 40.2922 81.6879 40.6394C81.7341 40.9866 81.7107 41.3393 81.6191 41.6776C81.5275 42.0158 81.3694 42.3328 81.154 42.6105C80.9386 42.8882 80.6701 43.1211 80.3637 43.296L68.65 49.9813C68.3436 50.1563 68.0054 50.2698 67.6547 50.3152C67.304 50.3607 66.9476 50.3373 66.6061 50.2463C66.2645 50.1553 65.9444 49.9985 65.6641 49.7849C65.3838 49.5712 65.1488 49.305 64.9725 49.0014L64.7967 48.6961C64.7347 48.5879 64.6948 48.4686 64.6793 48.3451C64.6638 48.2216 64.6731 48.0963 64.7066 47.9764C64.7401 47.8565 64.7972 47.7442 64.8745 47.6462C64.9519 47.5481 65.048 47.4661 65.1574 47.4049Z" fill="white"/>
<path d="M77.4013 43.1472L77.9246 42.8482C78.2122 42.684 78.5798 42.7816 78.7457 43.0664L80.0427 45.2928C80.2085 45.5776 80.1099 45.9416 79.8223 46.1059L79.299 46.4049C79.0114 46.5691 78.6439 46.4715 78.478 46.1867L77.181 43.9603C77.0151 43.6755 77.1137 43.3115 77.4013 43.1472Z" fill="#0944A1"/>
<path d="M69.4793 47.6705L70.0027 47.3716C70.2903 47.2074 70.6579 47.3051 70.8237 47.5899L72.1203 49.8165C72.2861 50.1013 72.1874 50.4653 71.8999 50.6296L71.3765 50.9284C71.0889 51.0927 70.7213 50.9949 70.5554 50.7101L69.2589 48.4835C69.093 48.1987 69.1917 47.8347 69.4793 47.6705Z" fill="#0944A1"/>
<path d="M77.4013 43.1472L77.9246 42.8482C78.2122 42.684 78.5798 42.7816 78.7457 43.0664L80.0427 45.2928C80.2085 45.5776 80.1099 45.9416 79.8223 46.1059L79.299 46.4049C79.0114 46.5691 78.6439 46.4715 78.478 46.1867L77.181 43.9603C77.0151 43.6755 77.1137 43.3115 77.4013 43.1472Z" fill="white"/>
<path d="M69.4793 47.6705L70.0027 47.3716C70.2903 47.2074 70.6579 47.3051 70.8237 47.5899L72.1203 49.8165C72.2861 50.1013 72.1874 50.4653 71.8999 50.6296L71.3765 50.9284C71.0889 51.0927 70.7213 50.9949 70.5554 50.7101L69.2589 48.4835C69.093 48.1987 69.1917 47.8347 69.4793 47.6705Z" fill="white"/>
<path d="M66.2068 28.9193C68.0101 29.9541 70.7659 36.502 71.3516 38.4832C71.0056 38.3324 70.616 38.3112 70.2554 38.4235C69.8948 38.5358 69.5876 38.774 69.391 39.0937C68.1328 36.8524 66.7175 34.7011 65.1556 32.6557C64.7814 32.18 64.2459 31.8547 63.6482 31.7399C61.0928 31.2484 56.7094 31.2607 55.8277 30.3723C54.4005 28.9315 53.2785 25.1676 55.3191 25.5461C57.2457 25.8941 64.7734 28.092 66.2068 28.9193Z" fill="#0944A1"/>
<path d="M69.6531 38.4547L70.5779 38.0334C71.6413 37.8319 71.8633 39.8925 71.8633 39.8925L69.3479 41.3089C69.3479 41.3089 69.166 38.9156 69.6531 38.4547Z" fill="#F7978D"/>
<path d="M69.9996 42.351L69.3368 41.307L71.8553 39.8906L72.6012 41.1575C72.613 41.1755 72.6223 41.195 72.629 41.2155C72.6717 41.3216 72.6705 41.4401 72.6254 41.5453C72.5804 41.6505 72.4953 41.7338 72.3886 41.7772L70.539 42.5159C70.4439 42.5559 70.3376 42.5613 70.2389 42.5311C70.1401 42.5009 70.0554 42.4372 69.9996 42.351Z" fill="#F7978D"/>
<path d="M49.6886 29.9531C50.3051 32.4349 52.5924 35.2647 57.953 33.25C60.419 32.3342 62.7063 33.891 62.7679 33.9002C62.9282 33.8758 63.8438 36.0004 63.8438 36.0004L61.686 36.7147C60.8968 35.686 59.9104 34.9503 58.6034 34.9533C57.2964 34.9564 56.0017 35.2067 54.6978 35.1853C50.6504 35.1121 49.553 32.0045 49.0382 29.9959L49.6886 29.9531Z" fill="#263238"/>
<path d="M52.0432 13.345C51.9288 13.3455 51.8145 13.3384 51.701 13.3236C51.2325 13.2992 51.3342 12.8047 51.9199 12.8047C52.2682 12.8108 52.4624 13.3206 52.0432 13.345Z" fill="#0944A1"/>
<path d="M48.2773 11.4719C48.2753 11.4235 48.2615 11.3762 48.2373 11.3341C48.2131 11.2919 48.1791 11.2561 48.1382 11.2295C48.0972 11.203 48.0504 11.1865 48.0017 11.1814C47.953 11.1763 47.9038 11.1828 47.8581 11.2003C47.4358 11.3895 47.3002 12.0336 47.3002 12.0336C47.3002 12.0336 48.2558 11.7558 48.2773 11.4719Z" fill="#0944A1"/>
<path d="M43.255 12.7206C43.3331 12.6444 43.3988 12.5569 43.45 12.4611C43.4726 12.4133 43.4844 12.3612 43.4844 12.3085C43.4844 12.2557 43.4726 12.2036 43.45 12.1558C43.4242 12.1083 43.3812 12.0722 43.3296 12.0546C43.2779 12.0371 43.2215 12.0394 43.1715 12.0612C43.1297 12.0906 43.0965 12.1303 43.0753 12.1764C43.0541 12.2225 43.0457 12.2733 43.0508 12.3237C43.0478 12.4877 43.0906 12.6493 43.1746 12.7908" fill="#0944A1"/>
<path d="M66.5013 4.41344L63.9304 3.16797L62.5864 5.67113L59.7659 6.1626L60.1666 8.96797L58.1783 11.0071L60.1666 13.0463L59.7659 15.8517L62.5864 16.3431L63.9304 18.8463L66.5013 17.6008L69.0752 18.8463L70.4161 16.3431L73.2367 15.8517L72.836 13.0463L74.8242 11.0071L72.836 8.96797L73.2367 6.1626L70.4161 5.67113L69.0752 3.16797L66.5013 4.41344Z" fill="#0944A1"/>
<path d="M67.5273 14.9274C67.5271 14.7863 67.498 14.6468 67.4417 14.5172C67.3855 14.3876 67.3034 14.2706 67.2002 14.1733C67.0971 14.076 66.9751 14.0005 66.8417 13.9511C66.7082 13.9018 66.5661 13.8798 66.4238 13.8864C66.283 13.881 66.1425 13.904 66.011 13.9541C65.8795 14.0041 65.7596 14.0802 65.6587 14.1775C65.5578 14.2749 65.4779 14.3916 65.424 14.5205C65.37 14.6494 65.3431 14.7878 65.3449 14.9274C65.3432 15.0674 65.37 15.2064 65.4238 15.3359C65.4776 15.4655 65.5573 15.5829 65.658 15.6813C65.7588 15.7796 65.8785 15.8568 66.0101 15.9082C66.1417 15.9596 66.2824 15.9842 66.4238 15.9805C66.5667 15.9854 66.7091 15.9618 66.8426 15.9112C66.9761 15.8605 67.0979 15.7837 67.2009 15.6855C67.3038 15.5872 67.3858 15.4695 67.4419 15.3393C67.4979 15.209 67.527 15.0689 67.5273 14.9274ZM67.4349 6.42578H65.4127L65.7549 12.7508H67.105L67.4349 6.42578Z" fill="white"/>
<path d="M70.8905 62.145H73.0977V61.9252C69.3986 61.9252 65.6348 61.9252 61.8802 61.8672V62.087C64.8888 62.1236 67.9097 62.145 70.8905 62.145Z" fill="#0944A1"/>
<path d="M74.9108 62.135C76.4952 62.135 78.1136 62.1075 79.7227 62.0831V61.8633C78.1136 61.8846 76.4952 61.903 74.9108 61.9121V62.135Z" fill="#0944A1"/>
<path d="M81.3412 61.8633H83.1445V62.0831H81.3412V61.8633Z" fill="#0944A1"/>
<path d="M83.319 40.6445H94.6289V40.8643H83.319V40.6445Z" fill="#0944A1"/>
<path d="M95.8478 40.6445H96.7695V40.8643H95.8478V40.6445Z" fill="#0944A1"/>
<path d="M65.6465 27.3242H70.7852V27.544H65.6465V27.3242Z" fill="#0944A1"/>
<path d="M72.0946 27.3242H74.9922V27.544H72.0946V27.3242Z" fill="#0944A1"/>
</g>
<defs>
<clipPath id="clip0_239_17739">
<rect width="120" height="108" fill="white" transform="matrix(-1 0 0 1 120.5 0.5)"/>
</clipPath>
</defs>
</svg>
